<svg width="56" height="56" viewBox="0 0 56 56" fill="none" xmlns="http://www.w3.org/2000/svg">
<rect width="56" height="56" rx="28" fill="#FFE6E7"/>
<path d="M39.9 25.75H40.9V24.75V22.875C40.9 21.935 40.5521 21.0208 39.9135 20.3365L39.1824 21.0188L39.9135 20.3365C39.2726 19.6499 38.3881 19.25 37.45 19.25H18.55C17.6119 19.25 16.7274 19.6499 16.0865 20.3365C15.4479 21.0208 15.1 21.935 15.1 22.875V24.75V25.75H16.1H39.9ZM16.1 26H15.1V27V34.125C15.1 36.0602 16.5815 37.75 18.55 37.75H37.45C38.3881 37.75 39.2726 37.3501 39.9135 36.6635L39.1824 35.9812L39.9135 36.6635C40.5521 35.9792 40.9 35.065 40.9 34.125V27V26H39.9H16.1ZM33.2386 33.2618C33.2457 33.2542 33.251 33.2511 33.2531 33.25H36.7469C36.749 33.2511 36.7543 33.2542 36.7614 33.2618C36.7791 33.2808 36.8 33.3204 36.8 33.375C36.8 33.4296 36.7791 33.4692 36.7614 33.4882L37.4419 34.1233L36.7614 33.4882C36.7543 33.4958 36.749 33.4989 36.7469 33.5H33.2531C33.251 33.4989 33.2457 33.4958 33.2386 33.4882L32.5581 34.1233L33.2386 33.4882C33.2209 33.4692 33.2 33.4296 33.2 33.375C33.2 33.3204 33.2209 33.2808 33.2386 33.2618ZM15 22.875C15 21.8259 15.3896 20.8324 16.0637 20.1102C16.7356 19.3903 17.6316 19 18.55 19H37.45C37.9062 19 38.3598 19.0962 38.7856 19.2851C39.2115 19.4741 39.6032 19.7533 39.9363 20.1102C40.2695 20.4672 40.5372 20.8948 40.7209 21.37C40.9047 21.8453 41 22.3569 41 22.875V34.125C41 34.6431 40.9047 35.1547 40.7209 35.63C40.5372 36.1052 40.2695 36.5328 39.9363 36.8898C39.6032 37.2467 39.2115 37.5259 38.7856 37.7149C38.3598 37.9038 37.9062 38 37.45 38H18.55C17.6316 38 16.7356 37.6097 16.0637 36.8898C15.3896 36.1676 15 35.1741 15 34.125V22.875Z" fill="white" stroke="white" stroke-width="2"/>
<rect width="18" height="18" rx="9" fill="#AFB2B4"/>
<path d="M8.55176 12.625V7.525H7.35176V6.575C7.91176 6.505 8.26176 6.275 8.49176 6.045C8.62176 5.915 8.72176 5.775 8.80176 5.625H10.0518V12.625H8.55176Z" fill="white"/>
</svg>
