<svg width="56" height="56" viewBox="0 0 56 56" fill="none" xmlns="http://www.w3.org/2000/svg">
<rect width="56" height="56" rx="28" fill="#FFE6E7"/>
<path fill-rule="evenodd" clip-rule="evenodd" d="M21.9778 17H34.0222C35.6668 17 37 18.3332 37 19.9778V35.0222C37 36.6668 35.6668 38 34.0222 38H21.9778C20.3332 38 19 36.6668 19 35.0222V19.9778C19 18.3332 20.3332 17 21.9778 17ZM17 19.9778C17 17.2286 19.2286 15 21.9778 15H34.0222C36.7714 15 39 17.2286 39 19.9778V35.0222C39 37.7714 36.7714 40 34.0222 40H21.9778C19.2286 40 17 37.7714 17 35.0222V19.9778ZM21.7549 21.9999C21.7549 21.3126 22.312 20.7555 22.9993 20.7555H31.9993C32.6866 20.7555 33.2438 21.3126 33.2438 21.9999C33.2438 22.6872 32.6866 23.2444 31.9993 23.2444H22.9993C22.312 23.2444 21.7549 22.6872 21.7549 21.9999ZM21.7556 28C21.7556 27.3127 22.3127 26.7556 23 26.7556H32C32.6873 26.7556 33.2444 27.3127 33.2444 28C33.2444 28.6873 32.6873 29.2444 32 29.2444H23C22.3127 29.2444 21.7556 28.6873 21.7556 28Z" fill="white"/>
<rect width="18" height="18" rx="9" fill="#AFB2B4"/>
<path d="M8.37402 11.225H11.374V12.625H6.42402C6.42402 9.325 9.82402 9.325 9.82402 7.775C9.82402 7.265 9.42402 6.875 8.82402 6.875C8.39402 6.875 8.09402 7.095 7.90402 7.305C7.79402 7.425 7.69402 7.565 7.62402 7.725L6.42402 7.125C6.55402 6.815 6.72402 6.545 6.94402 6.305C7.32402 5.895 7.94402 5.475 8.92402 5.475C10.424 5.475 11.374 6.435 11.374 7.675C11.374 9.665 9.17402 9.985 8.37402 11.225Z" fill="white"/>
</svg>
