<svg width="56" height="56" viewBox="0 0 56 56" fill="none" xmlns="http://www.w3.org/2000/svg">
<rect width="56" height="56" rx="28" fill="#FD384F"/>
<path d="M14 20.4889C14 19.1143 15.1143 18 16.4889 18H38V37H16.4889C15.1143 37 14 35.8857 14 34.5111V20.4889Z" stroke="white" stroke-width="2" stroke-linejoin="round"/>
<path d="M37 18H38.5111C39.3334 18 40 18.6666 40 19.4889V34.5111C40 35.3334 39.3334 36 38.5111 36H37V18Z" fill="white" stroke="white" stroke-width="2"/>
<path d="M20 18H30V24.5111C30 25.8857 28.8857 27 27.5111 27H22.4889C21.1143 27 20 25.8857 20 24.5111V18Z" stroke="white" stroke-width="2" stroke-linejoin="round"/>
<circle cx="37.5" cy="34.5" r="6.74444" fill="white" stroke="#FD384F" stroke-width="2.48889"/>
<path d="M36 34.5333L37.6 36L40 34" stroke="#FD384F" stroke-width="1.86667" stroke-linecap="round" stroke-linejoin="round"/>
<rect width="18" height="18" rx="9" fill="#353639"/>
<path d="M6.94824 8.625L8.89824 5.625H10.4482L8.94824 7.925L9.04824 7.905C9.11824 7.895 9.18824 7.875 9.29824 7.875C10.5482 7.875 11.6482 8.975 11.6482 10.325C11.6482 11.675 10.5482 12.775 8.99824 12.775C7.44824 12.775 6.34824 11.675 6.34824 10.325C6.34824 9.855 6.49824 9.425 6.64824 9.115C6.73824 8.935 6.83824 8.775 6.94824 8.625ZM8.99824 11.425C9.64824 11.425 10.0982 10.975 10.0982 10.325C10.0982 9.675 9.64824 9.225 8.99824 9.225C8.34824 9.225 7.89824 9.675 7.89824 10.325C7.89824 10.975 8.34824 11.425 8.99824 11.425Z" fill="white"/>
</svg>
