<svg width="56" height="56" viewBox="0 0 56 56" fill="none" xmlns="http://www.w3.org/2000/svg">
<rect width="56" height="56" rx="28" fill="#FD384F"/>
<mask id="path-2-outside-1_9867_27134" maskUnits="userSpaceOnUse" x="9.17171" y="7.17157" width="39.598" height="39.598" fill="black">
<rect fill="white" x="9.17171" y="7.17157" width="39.598" height="39.598"/>
<path d="M34.171 18.4588C34.6031 18.0267 35.192 17.7868 35.808 17.7917C36.4241 17.7967 37.0169 18.0462 37.456 18.4853C37.8951 18.9244 38.1446 19.5172 38.1496 20.1332C38.1545 20.7493 37.9145 21.3381 37.4824 21.7702L33.425 25.8277L36.4832 35.4232C36.5564 35.6532 36.5658 35.8978 36.5101 36.1307C36.4545 36.3635 36.3361 36.5757 36.1676 36.7442L35.7691 37.1428C35.6875 37.2245 35.5885 37.287 35.4793 37.3256C35.3701 37.3643 35.2533 37.3782 35.1373 37.3664C35.0213 37.3546 34.9089 37.3174 34.8081 37.2574C34.7074 37.1974 34.6208 37.1161 34.5545 37.0193L29.5405 29.7122L25.7429 33.5098C25.6422 33.6102 25.5711 33.7366 25.5372 33.8753C25.5034 34.0141 25.508 34.1601 25.5507 34.2977L26.3794 36.9684C26.4858 37.3116 26.4975 37.6758 26.4133 38.0222C26.3291 38.3685 26.1521 38.684 25.9013 38.935L25.4879 39.3483C25.4049 39.4314 25.3039 39.4945 25.1925 39.533C25.0811 39.5714 24.9621 39.5842 24.8442 39.5703C24.7263 39.5565 24.6127 39.5164 24.5116 39.453C24.4105 39.3897 24.3246 39.3046 24.2601 39.2042L21.3169 34.6243L16.7371 31.6811C16.6366 31.6167 16.5516 31.5308 16.4882 31.4297C16.4249 31.3286 16.3848 31.2149 16.3709 31.0971C16.3571 30.9792 16.3699 30.8602 16.4083 30.7488C16.4467 30.6373 16.5098 30.5364 16.593 30.4533L17.0063 30.04C17.2573 29.7891 17.5728 29.6122 17.9191 29.5279C18.2654 29.4437 18.6296 29.4554 18.9729 29.5618L21.6445 30.3896C21.7818 30.4322 21.9276 30.437 22.0662 30.4033C22.2048 30.3696 22.3311 30.2988 22.4315 30.1983L26.2282 26.4017L18.9229 21.3859C18.8261 21.3196 18.7448 21.233 18.6848 21.1322C18.6248 21.0315 18.5876 20.9191 18.5758 20.803C18.564 20.687 18.5779 20.5702 18.6166 20.461C18.6552 20.3518 18.7177 20.2529 18.7994 20.1713L19.197 19.7737C19.3656 19.6049 19.5779 19.4861 19.8109 19.4304C20.0439 19.3746 20.2888 19.3838 20.519 19.4572L30.1136 22.5162L34.171 18.4588Z"/>
</mask>
<path d="M34.171 18.4588L32.7568 17.0446L34.171 18.4588ZM37.456 18.4853L38.8702 17.0711L37.456 18.4853ZM33.425 25.8277L32.0108 24.4135C31.4819 24.9424 31.2923 25.7223 31.5195 26.435L33.425 25.8277ZM36.4832 35.4232L38.3888 34.8162L38.3887 34.8159L36.4832 35.4232ZM36.1676 36.7442L37.5818 38.1585L37.5822 38.158L36.1676 36.7442ZM35.7691 37.1428L34.3548 35.7286L34.3535 35.7299L35.7691 37.1428ZM34.5545 37.0193L36.2045 35.8891L36.2036 35.8877L34.5545 37.0193ZM29.5405 29.7122L31.1896 28.5806C30.8533 28.0904 30.3163 27.7753 29.7243 27.7206C29.1323 27.666 28.5467 27.8776 28.1263 28.298L29.5405 29.7122ZM25.7429 33.5098L27.1549 34.9262L27.1571 34.924L25.7429 33.5098ZM25.5507 34.2977L27.4609 33.705L27.4609 33.705L25.5507 34.2977ZM26.3794 36.9684L28.2898 36.3763L28.2896 36.3756L26.3794 36.9684ZM25.9013 38.935L27.3155 40.3492L27.3159 40.3488L25.9013 38.935ZM25.4879 39.3483L24.0737 37.9341L24.0731 37.9347L25.4879 39.3483ZM24.2601 39.2042L25.9435 38.1243L25.9426 38.1229L24.2601 39.2042ZM21.3169 34.6243L22.9994 33.5431C22.8444 33.3019 22.6394 33.0968 22.3982 32.9418L21.3169 34.6243ZM16.7371 31.6811L17.8183 29.9986L17.817 29.9978L16.7371 31.6811ZM16.593 30.4533L18.0066 31.8681L18.0072 31.8675L16.593 30.4533ZM17.0063 30.04L15.5925 28.6254L15.5921 28.6258L17.0063 30.04ZM18.9729 29.5618L18.3809 31.4722L18.381 31.4722L18.9729 29.5618ZM21.6445 30.3896L22.2372 28.4795L22.2364 28.4792L21.6445 30.3896ZM22.4315 30.1983L23.8456 31.6127L23.8457 31.6126L22.4315 30.1983ZM26.2282 26.4017L27.6424 27.8159C28.0627 27.3956 28.2743 26.8101 28.2197 26.2182C28.1652 25.6263 27.8502 25.0893 27.3602 24.7529L26.2282 26.4017ZM18.9229 21.3859L20.055 19.7371L20.0531 19.7359L18.9229 21.3859ZM18.7994 20.1713L20.2123 21.5868L20.2136 21.5855L18.7994 20.1713ZM19.197 19.7737L20.6112 21.1879L20.6122 21.1869L19.197 19.7737ZM20.519 19.4572L21.1265 17.5517L21.126 17.5515L20.519 19.4572ZM30.1136 22.5162L29.5061 24.4217C30.2188 24.649 30.9988 24.4595 31.5278 23.9305L30.1136 22.5162ZM35.5852 19.873C35.6348 19.8234 35.7069 19.791 35.7919 19.7917L35.8241 15.7918C34.677 15.7825 33.5714 16.23 32.7568 17.0446L35.5852 19.873ZM35.7919 19.7917C35.8784 19.7923 35.9704 19.8282 36.0418 19.8995L38.8702 17.0711C38.0633 16.2642 36.9697 15.801 35.8241 15.7918L35.7919 19.7917ZM36.0418 19.8995C36.1131 19.9708 36.1489 20.0628 36.1496 20.1494L40.1495 20.1171C40.1403 18.9715 39.6771 17.878 38.8702 17.0711L36.0418 19.8995ZM36.1496 20.1494C36.1503 20.2343 36.1178 20.3064 36.0682 20.356L38.8967 23.1845C39.7112 22.3699 40.1587 21.2643 40.1495 20.1171L36.1496 20.1494ZM36.0682 20.356L32.0108 24.4135L34.8392 27.2419L38.8967 23.1845L36.0682 20.356ZM31.5195 26.435L34.5776 36.0305L38.3887 34.8159L35.3306 25.2204L31.5195 26.435ZM34.5775 36.0302C34.5412 35.9163 34.5351 35.7904 34.5649 35.6659L38.4554 36.5954C38.5964 36.0053 38.5717 35.3901 38.3888 34.8162L34.5775 36.0302ZM34.5649 35.6659C34.5947 35.5411 34.6591 35.4244 34.7529 35.3305L37.5822 38.158C38.013 37.7269 38.3143 37.1858 38.4554 36.5954L34.5649 35.6659ZM34.7534 35.33L34.3548 35.7286L37.1833 38.557L37.5818 38.1585L34.7534 35.33ZM34.3535 35.7299C34.4836 35.5996 34.6405 35.5009 34.8119 35.4402L36.1467 39.211C36.5366 39.073 36.8914 38.8495 37.1846 38.5557L34.3535 35.7299ZM34.8119 35.4402C34.9833 35.3796 35.1636 35.3588 35.3396 35.3767L34.935 39.3561C35.343 39.3976 35.7569 39.3489 36.1467 39.211L34.8119 35.4402ZM35.3396 35.3767C35.5155 35.3945 35.6831 35.4506 35.8315 35.539L33.7847 38.9757C34.1346 39.1841 34.5271 39.3147 34.935 39.3561L35.3396 35.3767ZM35.8315 35.539C35.9799 35.6274 36.1071 35.7468 36.2045 35.8891L32.9044 38.1495C33.1344 38.4853 33.4348 38.7673 33.7847 38.9757L35.8315 35.539ZM36.2036 35.8877L31.1896 28.5806L27.8914 30.8437L32.9054 38.1508L36.2036 35.8877ZM28.1263 28.298L24.3287 32.0955L27.1571 34.924L30.9547 31.1264L28.1263 28.298ZM24.3309 32.0933C23.9688 32.4543 23.7147 32.9073 23.5942 33.4014L27.4803 34.3493C27.4274 34.5659 27.3156 34.766 27.1549 34.9262L24.3309 32.0933ZM23.5942 33.4014C23.4737 33.8952 23.4915 34.4099 23.6406 34.8905L27.4609 33.705C27.5246 33.9104 27.533 34.133 27.4803 34.3493L23.5942 33.4014ZM23.6406 34.8904L24.4693 37.5611L28.2896 36.3756L27.4609 33.705L23.6406 34.8904ZM24.4691 37.5604C24.4694 37.5613 24.468 37.5577 24.4699 37.5496L28.3567 38.4947C28.5271 37.794 28.5023 37.0619 28.2898 36.3763L24.4691 37.5604ZM24.4699 37.5496C24.472 37.5413 24.4771 37.5307 24.4867 37.5211L27.3159 40.3488C27.8271 39.8373 28.1863 39.1957 28.3567 38.4947L24.4699 37.5496ZM24.4871 37.5208L24.0737 37.9341L26.9022 40.7625L27.3155 40.3492L24.4871 37.5208ZM24.0731 37.9347C24.2055 37.8022 24.3656 37.7025 24.5404 37.6422L25.8446 41.4237C26.2423 41.2865 26.6043 41.0606 26.9028 40.7619L24.0731 37.9347ZM24.5404 37.6422C24.7152 37.582 24.8988 37.563 25.0773 37.584L24.6111 41.5567C25.0253 41.6053 25.447 41.5608 25.8446 41.4237L24.5404 37.6422ZM25.0773 37.584C25.2557 37.6049 25.425 37.6652 25.5738 37.7584L23.4493 41.1476C23.8003 41.3676 24.1969 41.5081 24.6111 41.5567L25.0773 37.584ZM25.5738 37.7584C25.7226 37.8517 25.8487 37.9765 25.9435 38.1243L22.5767 40.2841C22.8004 40.6327 23.0984 40.9276 23.4493 41.1476L25.5738 37.7584ZM25.9426 38.1229L22.9994 33.5431L19.6344 35.7056L22.5776 40.2855L25.9426 38.1229ZM22.3982 32.9418L17.8183 29.9986L15.6558 33.3637L20.2357 36.3069L22.3982 32.9418ZM17.817 29.9978C17.9647 30.0925 18.0896 30.2187 18.1828 30.3674L14.7936 32.4919C15.0136 32.8429 15.3086 33.1409 15.6572 33.3645L17.817 29.9978ZM18.1828 30.3674C18.2761 30.5162 18.3364 30.6855 18.3573 30.8639L14.3846 31.3302C14.4332 31.7443 14.5736 32.141 14.7936 32.4919L18.1828 30.3674ZM18.3573 30.8639C18.3783 31.0425 18.3593 31.2261 18.299 31.4008L14.5176 30.0967C14.3805 30.4942 14.336 30.916 14.3846 31.3302L18.3573 30.8639ZM18.299 31.4008C18.2387 31.5757 18.139 31.7358 18.0066 31.8681L15.1794 29.0385C14.8807 29.337 14.6547 29.699 14.5176 30.0967L18.299 31.4008ZM18.0072 31.8675L18.4205 31.4542L15.5921 28.6258L15.1787 29.0391L18.0072 31.8675ZM18.4201 31.4546C18.4106 31.4641 18.4 31.4693 18.3916 31.4713L17.4466 27.5846C16.7456 27.755 16.104 28.1141 15.5925 28.6254L18.4201 31.4546ZM18.3916 31.4713C18.3836 31.4733 18.3799 31.4719 18.3809 31.4722L19.5649 27.6514C18.8793 27.439 18.1473 27.4142 17.4466 27.5846L18.3916 31.4713ZM18.381 31.4722L21.0525 32.3L22.2364 28.4792L19.5649 27.6514L18.381 31.4722ZM21.0517 32.2998C21.5315 32.4486 22.0453 32.4666 22.5385 32.3467L21.5939 28.4598C21.8099 28.4074 22.0321 28.4158 22.2372 28.4795L21.0517 32.2998ZM22.5385 32.3467C23.032 32.2268 23.4845 31.9737 23.8456 31.6127L21.0174 28.784C21.1776 28.6238 21.3776 28.5124 21.5939 28.4598L22.5385 32.3467ZM23.8457 31.6126L27.6424 27.8159L24.814 24.9875L21.0173 28.7841L23.8457 31.6126ZM27.3602 24.7529L20.055 19.7371L17.7909 23.0347L25.0961 28.0505L27.3602 24.7529ZM20.0531 19.7359C20.1954 19.8333 20.3148 19.9604 20.4032 20.1088L16.9665 22.1556C17.1749 22.5055 17.4569 22.8059 17.7927 23.0359L20.0531 19.7359ZM20.4032 20.1088C20.4916 20.2573 20.5476 20.4249 20.5655 20.6007L16.586 21.0054C16.6275 21.4133 16.7581 21.8057 16.9665 22.1556L20.4032 20.1088ZM20.5655 20.6007C20.5834 20.7767 20.5626 20.9571 20.5019 21.1284L16.7312 19.7937C16.5932 20.1834 16.5446 20.5973 16.586 21.0054L20.5655 20.6007ZM20.5019 21.1284C20.4413 21.2999 20.3426 21.4568 20.2123 21.5868L17.3865 18.7558C17.0927 19.049 16.8692 19.4038 16.7312 19.7937L20.5019 21.1284ZM20.2136 21.5855L20.6112 21.1879L17.7828 18.3595L17.3852 18.7571L20.2136 21.5855ZM20.6122 21.1869C20.5183 21.2809 20.4015 21.3455 20.2766 21.3754L19.3452 17.4853C18.7543 17.6268 18.2129 17.9288 17.7818 18.3605L20.6122 21.1869ZM20.2766 21.3754C20.152 21.4052 20.026 21.3991 19.912 21.3628L21.126 17.5515C20.5516 17.3685 19.9358 17.3439 19.3452 17.4853L20.2766 21.3754ZM19.9115 21.3627L29.5061 24.4217L30.7211 20.6108L21.1265 17.5517L19.9115 21.3627ZM31.5278 23.9305L35.5852 19.873L32.7568 17.0446L28.6994 21.102L31.5278 23.9305Z" fill="white" mask="url(#path-2-outside-1_9867_27134)"/>
<rect width="18" height="18" rx="9" fill="#353639"/>
<path d="M6.22402 11.675L7.22402 10.675C7.34402 10.815 7.48402 10.945 7.63402 11.055C7.90402 11.245 8.27402 11.425 8.72402 11.425C9.52402 11.425 9.92402 11.025 9.92402 10.575C9.92402 10.125 9.53402 9.725 8.82402 9.725H8.02402V8.425H8.72402C9.32402 8.425 9.67402 8.075 9.67402 7.625C9.67402 7.175 9.32402 6.825 8.72402 6.825C8.33402 6.825 8.04402 7.005 7.81402 7.175C7.68402 7.285 7.57402 7.395 7.47402 7.525L6.47402 6.525C6.64402 6.335 6.84402 6.155 7.07402 6.005C7.47402 5.735 8.07402 5.475 8.87402 5.475C10.274 5.475 11.224 6.425 11.224 7.425C11.224 8.015 10.944 8.375 10.674 8.605C10.504 8.735 10.324 8.845 10.124 8.925C10.374 9.015 10.594 9.135 10.794 9.295C11.134 9.555 11.474 10.015 11.474 10.675C11.474 11.765 10.474 12.775 8.87402 12.775C7.99402 12.775 7.33402 12.505 6.89402 12.225C6.63402 12.065 6.41402 11.885 6.22402 11.675Z" fill="white"/>
</svg>
