<svg width="56" height="56" viewBox="0 0 56 56" fill="none" xmlns="http://www.w3.org/2000/svg">
<rect width="56" height="56" rx="28" fill="#FD384F"/>
<path d="M19.8182 34.3846L18.8182 34.3846L19.8182 34.3846ZM33.4545 34.3846H34.4545H33.4545ZM25.3409 33.3846C24.7886 33.3846 24.3409 33.8323 24.3409 34.3846C24.3409 34.9369 24.7886 35.3846 25.3409 35.3846V33.3846ZM32.0909 20.7846H33.0909H32.0909ZM13 19C12.4477 19 12 19.4477 12 20C12 20.5523 12.4477 21 13 21V19ZM19.3409 35.3846C19.8932 35.3846 20.3409 34.9369 20.3409 34.3846C20.3409 33.8323 19.8932 33.3846 19.3409 33.3846V35.3846ZM16.7273 27.1923C16.7273 26.64 16.2796 26.1923 15.7273 26.1923C15.175 26.1923 14.7273 26.64 14.7273 27.1923H16.7273ZM14.3636 22.9231C13.8114 22.9231 13.3636 23.3708 13.3636 23.9231C13.3636 24.4754 13.8114 24.9231 14.3636 24.9231V22.9231ZM19.8182 24.9231C20.3705 24.9231 20.8182 24.4754 20.8182 23.9231C20.8182 23.3708 20.3705 22.9231 19.8182 22.9231V24.9231ZM32.0909 22.9231C31.5386 22.9231 31.0909 23.3708 31.0909 23.9231C31.0909 24.4754 31.5386 24.9231 32.0909 24.9231V22.9231ZM39.7409 23.9231L39.7411 22.9231H39.7409V23.9231ZM40.4882 24.3886L41.3955 23.9682L41.3952 23.9676L40.4882 24.3886ZM42.9291 29.656L42.0218 30.0765L42.0223 30.0776L42.9291 29.656ZM43 29.9738H44L44 29.9715L43 29.9738ZM43 33.6H44H43ZM42.1818 34.3846V35.3846V34.3846ZM39.5909 33.3846C39.0386 33.3846 38.5909 33.8323 38.5909 34.3846C38.5909 34.9369 39.0386 35.3846 39.5909 35.3846V33.3846ZM22.5455 38C23.5208 38 24.4642 37.6288 25.1661 36.9557L23.7818 35.5122C23.4608 35.8201 23.0168 36 22.5455 36V38ZM25.1661 36.9557C25.8694 36.2813 26.2727 35.3573 26.2727 34.3846H24.2727C24.2727 34.7992 24.1014 35.2057 23.7818 35.5122L25.1661 36.9557ZM26.2727 34.3846C26.2727 33.4119 25.8694 32.488 25.1661 31.8135L23.7818 33.257C24.1014 33.5635 24.2727 33.97 24.2727 34.3846H26.2727ZM25.1661 31.8135C24.4642 31.1404 23.5208 30.7692 22.5455 30.7692V32.7692C23.0168 32.7692 23.4608 32.9492 23.7818 33.257L25.1661 31.8135ZM22.5455 30.7692C21.5701 30.7692 20.6267 31.1404 19.9248 31.8135L21.3091 33.257C21.6301 32.9492 22.0742 32.7692 22.5455 32.7692V30.7692ZM19.9248 31.8135C19.2215 32.488 18.8182 33.4119 18.8182 34.3846L20.8182 34.3846C20.8182 33.97 20.9895 33.5635 21.3091 33.257L19.9248 31.8135ZM18.8182 34.3846C18.8182 35.3573 19.2215 36.2813 19.9248 36.9557L21.3091 35.5122C20.9895 35.2057 20.8182 34.7992 20.8182 34.3846L18.8182 34.3846ZM19.9248 36.9557C20.6267 37.6288 21.5701 38 22.5455 38V36C22.0742 36 21.6301 35.8201 21.3091 35.5122L19.9248 36.9557ZM36.1818 38C37.1572 38 38.1005 37.6288 38.8024 36.9557L37.4181 35.5122C37.0971 35.8201 36.6531 36 36.1818 36V38ZM38.8024 36.9557C39.5058 36.2813 39.9091 35.3573 39.9091 34.3846H37.9091C37.9091 34.7992 37.7377 35.2057 37.4181 35.5122L38.8024 36.9557ZM39.9091 34.3846C39.9091 33.4119 39.5058 32.488 38.8024 31.8135L37.4181 33.257C37.7377 33.5635 37.9091 33.97 37.9091 34.3846H39.9091ZM38.8024 31.8135C38.1005 31.1404 37.1572 30.7692 36.1818 30.7692V32.7692C36.6531 32.7692 37.0971 32.9492 37.4181 33.257L38.8024 31.8135ZM36.1818 30.7692C35.2065 30.7692 34.2631 31.1404 33.5612 31.8135L34.9455 33.257C35.2665 32.9492 35.7105 32.7692 36.1818 32.7692V30.7692ZM33.5612 31.8135C32.8579 32.488 32.4545 33.4119 32.4545 34.3846L34.4545 34.3846C34.4545 33.97 34.6259 33.5635 34.9455 33.257L33.5612 31.8135ZM32.4545 34.3846C32.4545 35.3573 32.8579 36.2813 33.5612 36.9557L34.9455 35.5122C34.6259 35.2057 34.4545 34.7992 34.4545 34.3846L32.4545 34.3846ZM33.5612 36.9557C34.2631 37.6288 35.2065 38 36.1818 38V36C35.7105 36 35.2665 35.8201 34.9455 35.5122L33.5612 36.9557ZM25.3409 35.3846H32.0909V33.3846H25.3409V35.3846ZM33.0909 34.3846V20.7846H31.0909V34.3846H33.0909ZM33.0909 20.7846C33.0909 20.2975 32.8887 19.8392 32.5434 19.5081L31.1591 20.9516C31.1207 20.9147 31.0909 20.8556 31.0909 20.7846H33.0909ZM32.5434 19.5081C32.1995 19.1783 31.7417 19 31.2727 19V21C31.2377 21 31.1961 20.9871 31.1591 20.9516L32.5434 19.5081ZM31.2727 19H13V21H31.2727V19ZM19.3409 33.3846H16.5455V35.3846H19.3409V33.3846ZM16.5455 33.3846C16.5636 33.3846 16.5826 33.388 16.6015 33.3955L15.8632 35.2543C16.0807 35.3406 16.3124 35.3846 16.5455 35.3846V33.3846ZM16.6015 33.3955C16.6205 33.4031 16.6404 33.4152 16.6591 33.4331L15.2748 34.8766C15.4454 35.0402 15.6457 35.1679 15.8632 35.2543L16.6015 33.3955ZM16.6591 33.4331C16.6778 33.451 16.695 33.4747 16.7076 33.5037L14.8715 34.2968C14.9663 34.5162 15.1041 34.7129 15.2748 34.8766L16.6591 33.4331ZM16.7076 33.5037C16.7202 33.5329 16.7273 33.5658 16.7273 33.6H14.7273C14.7273 33.8403 14.7767 34.0772 14.8715 34.2968L16.7076 33.5037ZM16.7273 33.6V27.1923H14.7273V33.6H16.7273ZM14.3636 24.9231H19.8182V22.9231H14.3636V24.9231ZM32.0909 24.9231H39.7409V22.9231H32.0909V24.9231ZM39.7407 24.9231C39.7144 24.9231 39.6857 24.9159 39.6577 24.8985L40.7152 23.201C40.422 23.0183 40.0837 22.9232 39.7411 22.9231L39.7407 24.9231ZM39.6577 24.8985C39.6293 24.8808 39.6006 24.8516 39.5811 24.8096L41.3952 23.9676C41.2471 23.6485 41.0088 23.3839 40.7152 23.201L39.6577 24.8985ZM39.5809 24.8091L42.0218 30.0765L43.8364 29.2355L41.3955 23.9682L39.5809 24.8091ZM42.0223 30.0776C42.0082 30.0472 42.0001 30.0125 42 29.9761L44 29.9715C43.9994 29.716 43.943 29.4648 43.8359 29.2344L42.0223 30.0776ZM42 29.9738V33.6H44V29.9738H42ZM42 33.6C42 33.5658 42.0071 33.5329 42.0197 33.5037L43.8557 34.2968C43.9506 34.0772 44 33.8403 44 33.6H42ZM42.0197 33.5037C42.0323 33.4747 42.0495 33.451 42.0682 33.4331L43.4525 34.8766C43.6232 34.7129 43.761 34.5162 43.8557 34.2968L42.0197 33.5037ZM42.0682 33.4331C42.0869 33.4152 42.1068 33.4031 42.1258 33.3955L42.8641 35.2543C43.0816 35.1679 43.2819 35.0402 43.4525 34.8766L42.0682 33.4331ZM42.1258 33.3955C42.1447 33.388 42.1636 33.3846 42.1818 33.3846V35.3846C42.4149 35.3846 42.6466 35.3406 42.8641 35.2543L42.1258 33.3955ZM42.1818 33.3846H39.5909V35.3846H42.1818V33.3846ZM32.0909 35.3846H33.4545V33.3846H32.0909V35.3846Z" fill="white"/>
<rect width="18" height="18" rx="9" fill="#353639"/>
<path d="M6.32266 11.675L7.32266 10.675C7.44266 10.815 7.58266 10.945 7.73266 11.055C8.00266 11.245 8.37266 11.425 8.82266 11.425C9.62266 11.425 10.0727 10.975 10.0727 10.375C10.0727 9.775 9.63266 9.325 8.87266 9.325C8.48266 9.325 8.20266 9.455 8.01266 9.605C7.90266 9.685 7.80266 9.775 7.72266 9.875L6.67266 9.725L6.92266 5.625H11.1727V7.025H8.22266L8.17266 8.275C8.24266 8.225 8.33266 8.185 8.44266 8.155C8.61266 8.085 8.86266 8.025 9.17266 8.025C10.6227 8.025 11.6227 9.015 11.6227 10.375C11.6227 11.725 10.5727 12.775 8.97266 12.775C8.09266 12.775 7.43266 12.505 6.99266 12.225C6.73266 12.065 6.51266 11.885 6.32266 11.675Z" fill="white"/>
</svg>
