<svg width="16" height="16" viewBox="0 0 16 16" fill="none" xmlns="http://www.w3.org/2000/svg">
<path d="M1.5 4C1.5 3.17157 2.17157 2.5 3 2.5H13C13.8284 2.5 14.5 3.17157 14.5 4V5.5H1.5V4Z" stroke="black"/>
<path d="M1.5 5.5H14.5V7C14.5 10.5899 11.5899 13.5 8 13.5C4.41015 13.5 1.5 10.5899 1.5 7V5.5Z" stroke="black"/>
<path d="M9.5 13.4034C12.3061 12.8072 14.3598 10.3875 14.4931 7.52305C11.6931 7.7789 9.5 10.1333 9.5 13V13.4034Z" stroke="black"/>
<path d="M6.5 13.4034C3.69388 12.8072 1.64024 10.3875 1.5069 7.52305C4.30685 7.7789 6.5 10.1333 6.5 13V13.4034Z" stroke="black"/>
</svg>
