<svg width="24" height="24" viewBox="0 0 24 24" fill="none" xmlns="http://www.w3.org/2000/svg">
<path fill-rule="evenodd" clip-rule="evenodd" d="M5.759 14.8798C5.91517 15.0877 5.99961 15.3406 5.99961 15.6006V16.8H14.3996C17.0506 16.8 19.1996 14.651 19.1996 12V10.8C19.1996 8.14908 17.0506 6.00005 14.3996 6.00005H9.59961C6.94864 6.00005 4.79961 8.14908 4.79961 10.8V12C4.79961 13.0822 5.15629 14.0776 5.759 14.8798ZM3.59961 10.8C3.59961 7.48634 6.2859 4.80005 9.59961 4.80005H14.3996C17.7133 4.80005 20.3996 7.48634 20.3996 10.8V12C20.3996 15.3138 17.7133 18 14.3996 18H5.99961C5.33687 18 4.79961 17.4628 4.79961 16.8V15.6006C4.04612 14.5977 3.59961 13.351 3.59961 12V10.8Z" fill="black"/>
<path fill-rule="evenodd" clip-rule="evenodd" d="M11.9996 8.40005C11.3369 8.40005 10.7996 8.93731 10.7996 9.60005C10.7996 9.93142 10.531 10.2 10.1996 10.2C9.86824 10.2 9.59961 9.93142 9.59961 9.60005C9.59961 8.27457 10.6741 7.20005 11.9996 7.20005C13.3251 7.20005 14.3996 8.27457 14.3996 9.60005C14.3996 10.5094 13.8937 11.2997 13.1508 11.7063C12.9736 11.8033 12.8229 11.9174 12.7231 12.0337C12.6259 12.1471 12.5996 12.2341 12.5996 12.3C12.5996 12.6314 12.331 12.9 11.9996 12.9C11.6682 12.9 11.3996 12.6314 11.3996 12.3C11.3996 11.869 11.5869 11.5153 11.8122 11.2525C12.0349 10.9928 12.3158 10.7954 12.5746 10.6537C12.9483 10.4491 13.1996 10.0535 13.1996 9.60005C13.1996 8.93731 12.6624 8.40005 11.9996 8.40005Z" fill="black"/>
<path d="M12.5996 14.4C12.5996 14.7314 12.331 15 11.9996 15C11.6682 15 11.3996 14.7314 11.3996 14.4C11.3996 14.0687 11.6682 13.8 11.9996 13.8C12.331 13.8 12.5996 14.0687 12.5996 14.4Z" fill="black"/>
</svg>
