<svg width="20" height="20" viewBox="0 0 20 20" fill="none" xmlns="http://www.w3.org/2000/svg">
<path fill-rule="evenodd" clip-rule="evenodd" d="M4.79949 12.3998C4.92963 12.573 5 12.7838 5 13.0005V14H12C14.2091 14 16 12.2091 16 10V9C16 6.79086 14.2091 5 12 5H8C5.79086 5 4 6.79086 4 9V10C4 10.9018 4.29723 11.7313 4.79949 12.3998ZM3 9C3 6.23858 5.23858 4 8 4H12C14.7614 4 17 6.23858 17 9V10C17 12.7614 14.7614 15 12 15H5C4.44772 15 4 14.5523 4 14V13.0005C3.37209 12.1647 3 11.1258 3 10V9Z" fill="black"/>
<path fill-rule="evenodd" clip-rule="evenodd" d="M10 7C9.44772 7 9 7.44772 9 8C9 8.27614 8.77614 8.5 8.5 8.5C8.22386 8.5 8 8.27614 8 8C8 6.89543 8.89543 6 10 6C11.1046 6 12 6.89543 12 8C12 8.75777 11.5784 9.41634 10.9593 9.75523C10.8117 9.83606 10.6861 9.9311 10.6029 10.0281C10.5219 10.1225 10.5 10.195 10.5 10.25C10.5 10.5261 10.2761 10.75 10 10.75C9.72386 10.75 9.5 10.5261 9.5 10.25C9.5 9.89078 9.65604 9.59604 9.84383 9.37708C10.0294 9.16066 10.2635 8.99613 10.4791 8.87806C10.7906 8.70756 11 8.37787 11 8C11 7.44772 10.5523 7 10 7Z" fill="black"/>
<path d="M10.5 12C10.5 12.2761 10.2761 12.5 10 12.5C9.72386 12.5 9.5 12.2761 9.5 12C9.5 11.7239 9.72386 11.5 10 11.5C10.2761 11.5 10.5 11.7239 10.5 12Z" fill="black"/>
</svg>
