<svg width="16" height="16" viewBox="0 0 16 16" fill="none" xmlns="http://www.w3.org/2000/svg">
<path fill-rule="evenodd" clip-rule="evenodd" d="M15 8C15 11.866 11.866 15 8 15C4.13401 15 1 11.866 1 8C1 4.13401 4.13401 1 8 1C11.866 1 15 4.13401 15 8ZM13.9597 8.69923C13.8117 9.97449 13.2638 11.1278 12.4447 12.0305L8.70717 8.29298L9.86847 7.13168C10.9941 8.05086 12.4111 8.62665 13.9597 8.69923ZM13.9926 7.69964C12.707 7.63626 11.5279 7.16827 10.5798 6.42035L12.7133 4.28683C13.4612 5.2349 13.9292 6.41407 13.9926 7.69964ZM9.84832 5.73762L12.0306 3.55535C11.0346 2.65163 9.73362 2.07805 8.30036 2.00739C8.37102 3.44065 8.9446 4.74166 9.84832 5.73762ZM7.30077 2.04031C6.02551 2.18832 4.8722 2.7362 3.96948 3.55529L8.00006 7.58588L9.14049 6.44544C8.06353 5.27497 7.38027 3.73658 7.30077 2.04031ZM8.55008 13.9751C9.73853 13.8671 10.8269 13.4125 11.7132 12.7133L8.00006 9.00009L6.98965 10.0105C7.8837 11.1054 8.45287 12.4759 8.55008 13.9751ZM7.54819 13.9832C7.45689 12.7566 6.99676 11.6326 6.27831 10.7218L4.28683 12.7133C5.19755 13.4318 6.32151 13.8919 7.54819 13.9832ZM6.30342 9.28252L7.29295 8.29298L3.28673 4.28676C2.5875 5.17309 2.13293 6.2614 2.02489 7.44981C3.67106 7.55658 5.16214 8.23239 6.30342 9.28252ZM2.01675 8.45169C3.39017 8.55394 4.63482 9.11853 5.59559 9.99035L3.55535 12.0306C2.68354 11.0698 2.11897 9.82512 2.01675 8.45169Z" fill="black"/>
</svg>
