<svg width="16" height="16" viewBox="0 0 16 16" fill="none" xmlns="http://www.w3.org/2000/svg">
<path fill-rule="evenodd" clip-rule="evenodd" d="M5.50024 4.5C5.50024 3.11929 6.61953 2 8.00024 2C9.38096 2 10.5002 3.11929 10.5002 4.5H11.2217C12.2359 4.5 13.0895 5.25909 13.208 6.26632L13.7374 10.7663C13.8288 11.5427 13.4643 12.2576 12.8671 12.6602C12.9497 12.7494 13.0002 12.8688 13.0002 13C13.0002 13.2761 12.7764 13.5 12.5002 13.5C12.2241 13.5 12.0002 13.2761 12.0002 13C12.0002 12.9949 12.0003 12.9898 12.0005 12.9847C11.9189 12.9948 11.8357 13 11.7511 13H4.24929C4.16477 13 4.08158 12.9948 4.00001 12.9847L4.00024 13C4.00024 13.2761 3.77639 13.5 3.50024 13.5C3.2241 13.5 3.00024 13.2761 3.00024 13C3.00024 12.8688 3.05076 12.7495 3.13339 12.6603C2.5361 12.2576 2.17164 11.5427 2.26299 10.7663L2.7924 6.26632C2.91089 5.25909 3.76453 4.5 4.7787 4.5H5.50024ZM6.50024 4.5C6.50024 3.67157 7.17182 3 8.00024 3C8.82867 3 9.50024 3.67157 9.50024 4.5H6.50024ZM4.7787 5.5H11.2217C11.7288 5.5 12.1556 5.87955 12.2149 6.38316L12.3616 7.63067C12.1234 8.14401 11.6034 8.5 11.0002 8.5H5.00024C4.39703 8.5 3.87698 8.14394 3.6388 7.63052L3.78555 6.38316C3.8448 5.87955 4.27161 5.5 4.7787 5.5ZM8.00024 10.5C7.44796 10.5 7.00024 10.0523 7.00024 9.5H5.00024C4.4281 9.5 3.90084 9.3078 3.47951 8.98444L3.25614 10.8832C3.1862 11.4777 3.65069 12 4.24929 12H11.7511C12.3497 12 12.8142 11.4777 12.7443 10.8832L12.5209 8.98438C12.0996 9.30776 11.5724 9.5 11.0002 9.5H9.00024C9.00024 10.0523 8.55253 10.5 8.00024 10.5Z" fill="black"/>
</svg>
