<svg width="16" height="16" viewBox="0 0 16 16" fill="none" xmlns="http://www.w3.org/2000/svg">
<path fill-rule="evenodd" clip-rule="evenodd" d="M12 7.50005C12 6.75977 11.5978 6.11342 11 5.76761V4.5C11 3.63551 10.3404 3.05131 9.62297 2.92547C9.4396 2.16464 8.70888 1.7 8 1.7C7.29112 1.7 6.5604 2.16464 6.37703 2.92547C5.65959 3.05131 5 3.63551 5 4.5V5.76761C4.4022 6.11342 4 6.75977 4 7.50005V12.5C4 13.6046 4.89543 14.5 6 14.5H10C11.1046 14.5 12 13.6046 12 12.5V7.50005ZM5 7.50005C5 6.94776 5.44772 6.50005 6 6.50005H10C10.5523 6.50005 11 6.94776 11 7.50005H9C8.72386 7.50005 8.5 7.72391 8.5 8.00005C8.5 8.27619 8.72386 8.50005 9 8.50005H11V9.50005H9C8.72386 9.50005 8.5 9.72391 8.5 10C8.5 10.2762 8.72386 10.5 9 10.5H11V11.5H9C8.72386 11.5 8.5 11.7239 8.5 12C8.5 12.2762 8.72386 12.5 9 12.5H11C11 13.0523 10.5523 13.5 10 13.5H6C5.44772 13.5 5 13.0523 5 12.5V7.50005ZM10 4.5V5.50005H6V4.50005C6 4.16868 6.29848 3.9 6.66667 3.9C7.03486 3.9 7.33333 3.63137 7.33333 3.3C7.33333 2.96863 7.63181 2.7 8 2.7C8.36819 2.7 8.66667 2.96863 8.66667 3.3C8.66667 3.63137 8.96514 3.9 9.33333 3.9C9.70152 3.9 10 4.16863 10 4.5Z" fill="black"/>
</svg>
