<svg width="16" height="16" viewBox="0 0 16 16" fill="none" xmlns="http://www.w3.org/2000/svg">
<path fill-rule="evenodd" clip-rule="evenodd" d="M6.5 10.5C7.05228 10.5 7.5 10.9477 7.5 11.5V13C7.5 13.2761 7.72386 13.5 8 13.5C8.27614 13.5 8.5 13.2761 8.5 13V11.5C8.5 10.9477 8.94772 10.5 9.5 10.5H10.5C11.0523 10.5 11.5 10.0523 11.5 9.5V4.5C11.5 3.94772 11.0523 3.5 10.5 3.5H5.5C4.94772 3.5 4.5 3.94772 4.5 4.5V9.5C4.5 10.0523 4.94772 10.5 5.5 10.5H6.5ZM5.5 11.5C4.39543 11.5 3.5 10.6046 3.5 9.5V4.5C3.5 3.39543 4.39543 2.5 5.5 2.5H10.5C11.6046 2.5 12.5 3.39543 12.5 4.5V9.5C12.5 10.6046 11.6046 11.5 10.5 11.5H9.5V13C9.5 13.8284 8.82843 14.5 8 14.5C7.17157 14.5 6.5 13.8284 6.5 13V11.5H5.5Z" fill="black"/>
</svg>
