<svg width="16" height="16" viewBox="0 0 16 16" fill="none" xmlns="http://www.w3.org/2000/svg">
<path d="M7.56442 1.79108C7.75568 1.45176 8.24432 1.45176 8.43557 1.79108L9.87893 4.35185C10.093 4.73161 10.4617 4.99947 10.889 5.08569L13.7704 5.66708C14.1522 5.74412 14.3032 6.20884 14.0396 6.4956L12.0502 8.65963C11.7552 8.98056 11.6144 9.41396 11.6644 9.84701L12.0019 12.7671C12.0466 13.154 11.6513 13.4412 11.2971 13.2791L8.62424 12.0558C8.22785 11.8744 7.77215 11.8744 7.37576 12.0558L4.70288 13.2791C4.3487 13.4412 3.95338 13.154 3.9981 12.7671L4.33558 9.84701C4.38563 9.41396 4.24481 8.98056 3.94978 8.65963L1.96037 6.4956C1.69676 6.20884 1.84775 5.74412 2.22957 5.66708L5.11102 5.08569C5.53834 4.99947 5.90702 4.73161 6.12107 4.35185L7.56442 1.79108Z" stroke="#222222" stroke-linejoin="round"/>
</svg>
