<svg width="24" height="24" viewBox="0 0 24 24" fill="none" xmlns="http://www.w3.org/2000/svg">
<path fill-rule="evenodd" clip-rule="evenodd" d="M2.29551 3.15347C2.62499 2.90243 3.09558 2.96603 3.34661 3.29551L5.78816 6.50004H19.5662C20.6496 6.50004 21.4727 7.47449 21.2915 8.54265L20.0196 16.0426C19.8769 16.8842 19.1478 17.5 18.2942 17.5H6.41671C5.45021 17.5 4.66671 16.7165 4.66671 15.75V7.5032L2.15347 4.20457C1.90243 3.87509 1.96603 3.4045 2.29551 3.15347ZM6.16671 8.00004V15.75C6.16671 15.8881 6.27864 16 6.41671 16H18.2942C18.4162 16 18.5203 15.9121 18.5407 15.7918L19.8127 8.29184C19.8385 8.13925 19.7209 8.00004 19.5662 8.00004H6.16671Z" fill="white"/>
<path d="M8.75 20C8.75 20.6904 8.19036 21.25 7.5 21.25C6.80964 21.25 6.25 20.6904 6.25 20C6.25 19.3097 6.80964 18.75 7.5 18.75C8.19036 18.75 8.75 19.3097 8.75 20Z" fill="white"/>
<path d="M18.75 20C18.75 20.6904 18.1904 21.25 17.5 21.25C16.8096 21.25 16.25 20.6904 16.25 20C16.25 19.3097 16.8096 18.75 17.5 18.75C18.1904 18.75 18.75 19.3097 18.75 20Z" fill="white"/>
</svg>
