<svg width="18" height="18" viewBox="0 0 18 18" fill="none" xmlns="http://www.w3.org/2000/svg">
<path d="M7.75231 2.50898C8.13482 1.83034 9.1121 1.83034 9.49461 2.50898L11.2554 5.63288C11.3981 5.88605 11.6439 6.06463 11.9287 6.12211L15.4438 6.83135C16.2075 6.98543 16.5095 7.91487 15.9822 8.48838L13.5553 11.1283C13.3587 11.3422 13.2648 11.6312 13.2981 11.9199L13.7098 15.4821C13.7993 16.256 13.0086 16.8304 12.3003 16.5062L9.03962 15.0139C8.77536 14.8929 8.47156 14.8929 8.2073 15.0139L4.94664 16.5062C4.23828 16.8304 3.44765 16.256 3.53708 15.4821L3.94878 11.9199C3.98215 11.6312 3.88827 11.3422 3.69158 11.1283L1.26468 8.48838C0.737455 7.91487 1.03945 6.98543 1.80308 6.83135L5.31819 6.12211C5.60307 6.06463 5.84885 5.88605 5.99155 5.63288L7.75231 2.50898Z" fill="#FFC816"/>
</svg>
