<svg width="18" height="18" viewBox="0 0 18 18" fill="none" xmlns="http://www.w3.org/2000/svg">
<g clip-path="url(#clip0_5591_1357)">
<path d="M8.56442 2.79108C8.75568 2.45176 9.24432 2.45176 9.43557 2.79108L11.1963 5.91498L11.6319 5.66947L11.1963 5.91498C11.4104 6.29474 11.7791 6.5626 12.2064 6.64882L15.7215 7.35807C16.1033 7.4351 16.2543 7.89983 15.9907 8.18658L13.5638 10.8265C13.2688 11.1474 13.1279 11.5808 13.178 12.0139L13.5897 15.5761C13.6344 15.963 13.2391 16.2503 12.8849 16.0882L9.62424 14.5958C9.22785 14.4144 8.77215 14.4144 8.37576 14.5958L5.11509 16.0882C4.76091 16.2503 4.3656 15.963 4.41032 15.5761L4.82201 12.0139C4.87206 11.5808 4.73124 11.1474 4.43621 10.8265L2.00931 8.18658C1.7457 7.89983 1.8967 7.4351 2.27851 7.35807L5.79362 6.64882C6.22094 6.5626 6.58962 6.29474 6.80367 5.91498L8.56442 2.79108Z" stroke="#FFC816" stroke-linejoin="round"/>
</g>
<defs>
<clipPath id="clip0_5591_1357">
<rect width="18" height="18" fill="white"/>
</clipPath>
</defs>
</svg>
