<svg width="12" height="12" viewBox="0 0 12 12" fill="none" xmlns="http://www.w3.org/2000/svg">
<path d="M5.16951 1.67233C5.42452 1.2199 6.07603 1.2199 6.33104 1.67233L7.50488 3.75493C7.60002 3.92371 7.76387 4.04276 7.95379 4.08108L10.2972 4.55391C10.8063 4.65663 11.0076 5.27626 10.6561 5.65859L9.0382 7.41854C8.90707 7.56117 8.84449 7.7538 8.86673 7.94626L9.14119 10.3211C9.20082 10.837 8.67373 11.22 8.20149 11.0038L6.02772 10.0089C5.85154 9.9283 5.64901 9.9283 5.47283 10.0089L3.29906 11.0038C2.82682 11.2199 2.29973 10.837 2.35936 10.3211L2.63382 7.94626C2.65607 7.7538 2.59348 7.56117 2.46235 7.41854L0.844423 5.65859C0.492939 5.27626 0.694268 4.65663 1.20336 4.55391L3.54676 4.08108C3.73668 4.04276 3.90054 3.92371 3.99567 3.75493L5.16951 1.67233Z" fill="#FFC816"/>
</svg>
