<svg width="16" height="16" viewBox="0 0 16 16" fill="none" xmlns="http://www.w3.org/2000/svg">
<path fill-rule="evenodd" clip-rule="evenodd" d="M1.21417 1.10932C1.45297 0.930502 1.79404 0.975801 1.97598 1.2105L3.74553 3.49317H13.7313C14.5166 3.49317 15.1131 4.1873 14.9818 4.94818L14.06 10.2906C13.9565 10.8901 13.4281 11.3288 12.8095 11.3288H4.20107C3.50059 11.3288 2.93273 10.7707 2.93273 10.0822V4.20775L1.11123 1.85805C0.929288 1.62335 0.975379 1.28813 1.21417 1.10932ZM4.01988 4.56166V10.0822C4.01988 10.1806 4.101 10.2603 4.20107 10.2603H12.8095C12.8979 10.2603 12.9734 10.1976 12.9881 10.112L13.91 4.76952C13.9287 4.66083 13.8435 4.56166 13.7313 4.56166H4.01988Z" fill="white"/>
<path d="M5.89216 13.1096C5.89216 13.6013 5.48655 14 4.98621 14C4.48586 14 4.08025 13.6013 4.08025 13.1096C4.08025 12.6178 4.48586 12.2192 4.98621 12.2192C5.48655 12.2192 5.89216 12.6178 5.89216 13.1096Z" fill="white"/>
<path d="M13.1398 13.1096C13.1398 13.6013 12.7342 14 12.2339 14C11.7335 14 11.3279 13.6013 11.3279 13.1096C11.3279 12.6178 11.7335 12.2192 12.2339 12.2192C12.7342 12.2192 13.1398 12.6178 13.1398 13.1096Z" fill="white"/>
</svg>
