<svg width="12" height="12" viewBox="0 0 12 12" fill="none" xmlns="http://www.w3.org/2000/svg">
<g clip-path="url(#clip0_5591_1556)">
<path d="M5.70962 1.86068C5.83712 1.63447 6.16288 1.63447 6.29038 1.86068L7.46422 3.94328C7.60692 4.19645 7.85271 4.37503 8.13759 4.43251L10.481 4.90534C10.7355 4.9567 10.8362 5.26651 10.6605 5.45768L9.04253 7.21762C8.84584 7.43158 8.75196 7.72051 8.78532 8.00921L9.05979 10.384C9.0896 10.642 8.82606 10.8335 8.58994 10.7254L6.41616 9.73051C6.1519 9.60956 5.8481 9.60956 5.58384 9.73051L3.41006 10.7254C3.17394 10.8335 2.9104 10.642 2.94021 10.384L3.21468 8.00921C3.24804 7.72051 3.15416 7.43158 2.95747 7.21762L1.33954 5.45768C1.1638 5.26651 1.26446 4.9567 1.51901 4.90534L3.86241 4.43251C4.14729 4.37503 4.39308 4.19645 4.53578 3.94328L4.24539 3.77961L4.53578 3.94328L5.70962 1.86068Z" stroke="#FFC816" stroke-width="0.666667" stroke-linejoin="round"/>
</g>
<defs>
<clipPath id="clip0_5591_1556">
<rect width="12" height="12" fill="white"/>
</clipPath>
</defs>
</svg>
