<svg width="8" height="8" viewBox="0 0 8 8" fill="none" xmlns="http://www.w3.org/2000/svg">
<g clip-path="url(#clip0_9020_15262)">
<path d="M3.59361 0.24817C3.77205 -0.0827232 4.22795 -0.0827236 4.40639 0.24817L5.37585 2.04589C5.44242 2.16933 5.55708 2.2564 5.68997 2.28443L7.62536 2.69258C7.9816 2.76771 8.12248 3.22088 7.87653 3.50051L6.5403 5.01972C6.44854 5.12404 6.40475 5.26491 6.42031 5.40568L6.64699 7.45565C6.68871 7.83298 6.31988 8.11305 5.98944 7.95498L4.19414 7.09618C4.07086 7.03721 3.92914 7.03721 3.80586 7.09618L2.01057 7.95498C1.68012 8.11305 1.31129 7.83298 1.35301 7.45565L1.57969 5.40568C1.59525 5.26491 1.55146 5.12404 1.4597 5.01972L0.123473 3.50051C-0.122477 3.22088 0.0184028 2.76771 0.374636 2.69258L2.31003 2.28443C2.44292 2.2564 2.55758 2.16933 2.62415 2.04589L3.59361 0.24817Z" fill="#CCCCCC"/>
<path d="M2.01057 7.95498L3.80586 7.09618C3.8675 7.06669 3.93375 7.05195 4 7.05195V0C3.84142 0 3.68283 0.0827237 3.59361 0.24817L2.62415 2.04589C2.55758 2.16933 2.44292 2.2564 2.31003 2.28443L0.374636 2.69258C0.0184028 2.76771 -0.122477 3.22088 0.123473 3.50051L1.4597 5.01972C1.55146 5.12404 1.59525 5.26491 1.57969 5.40568L1.35301 7.45565C1.31129 7.83298 1.68012 8.11305 2.01057 7.95498Z" fill="black"/>
</g>
<defs>
<clipPath id="clip0_9020_15262">
<rect width="8" height="8" fill="white"/>
</clipPath>
</defs>
</svg>
