<svg width="24" height="24" viewBox="0 0 24 24" fill="none" xmlns="http://www.w3.org/2000/svg">
<circle cx="9" cy="12.5" r="0.5" fill="black"/>
<circle cx="12" cy="12.5" r="0.5" fill="black"/>
<circle cx="15" cy="12.5" r="0.5" fill="black"/>
<path d="M18.5 12C18.5 14.9681 15.665 17.5 12 17.5H11.9919C11.4894 17.5 10.4792 17.5001 8.45552 17.0386C8.26495 16.9952 8.06139 17.022 7.88631 17.1195L6.18808 18.0657L6.55324 15.6922C6.5842 15.4909 6.53623 15.2939 6.43519 15.1343C5.91645 14.3149 5.5 12.9517 5.5 12C5.5 9.03187 8.33496 6.5 12 6.5C15.665 6.5 18.5 9.03187 18.5 12ZM5.83089 18.2647C5.83098 18.2647 5.83107 18.2646 5.83115 18.2646L5.83089 18.2647Z" stroke="black" stroke-linecap="round" stroke-linejoin="round"/>
</svg>
