<svg width="24" height="24" viewBox="0 0 24 24" fill="none" xmlns="http://www.w3.org/2000/svg">
<circle cx="12" cy="12" r="8.5" fill="#222222"/>
<path d="M8.99984 15.4997H15.0002C15.3979 15.4997 15.7794 15.3417 16.0607 15.0604C16.342 14.7791 16.5 14.3976 16.5 13.9998V10.5001C16.5001 10.3031 16.4613 10.108 16.386 9.92594C16.3106 9.74392 16.2002 9.57852 16.0609 9.43919C15.9216 9.29987 15.7562 9.18935 15.5742 9.11394C15.3922 9.03854 15.1972 8.99973 15.0002 8.99973H14.3098C14.1114 8.99973 13.9206 8.92043 13.7796 8.77984L13.2201 8.21989C13.1505 8.15018 13.0679 8.09487 12.9769 8.05714C12.8859 8.01941 12.7883 7.99999 12.6898 8H11.3102C11.1107 8 10.921 8.0793 10.7799 8.21989L10.2204 8.77984C10.0794 8.92092 9.88865 8.99973 9.69016 8.99973H8.99984C8.80284 8.99973 8.60776 9.03854 8.42576 9.11394C8.24376 9.18935 8.0784 9.29987 7.93912 9.43919C7.79984 9.57852 7.68937 9.74392 7.61403 9.92594C7.53868 10.108 7.49994 10.3031 7.5 10.5001V13.9998C7.5 14.3976 7.65802 14.7791 7.93929 15.0604C8.22057 15.3417 8.60206 15.4997 8.99984 15.4997Z" stroke="white" stroke-width="0.686804" stroke-linecap="round" stroke-linejoin="round"/>
<path d="M12.0449 13.7961C12.5085 13.7961 12.9532 13.612 13.281 13.2842C13.6088 12.9563 13.793 12.5117 13.793 12.0481C13.793 11.5845 13.6088 11.1399 13.281 10.812C12.9532 10.4842 12.5085 10.3 12.0449 10.3C11.5813 10.3 11.1367 10.4842 10.8089 10.812C10.481 11.1399 10.2969 11.5845 10.2969 12.0481C10.2969 12.5117 10.481 12.9563 10.8089 13.2842C11.1367 13.612 11.5813 13.7961 12.0449 13.7961Z" stroke="white" stroke-width="0.600299" stroke-linecap="round" stroke-linejoin="round"/>
<circle cx="15" cy="10.5" r="0.5" fill="white"/>
</svg>
