<svg width="12" height="12" viewBox="0 0 12 12" fill="none" xmlns="http://www.w3.org/2000/svg">
<path d="M3.16441 10.6989L3.16034 10.7007C2.92422 10.8088 2.66067 10.6173 2.69049 10.3594L2.96495 7.98453C2.99832 7.69583 2.90444 7.4069 2.70775 7.19294L1.08982 5.433C0.914075 5.24183 1.01474 4.93202 1.26928 4.88066L3.61269 4.40783C3.89757 4.35035 4.14335 4.17178 4.28605 3.9186L4.28609 3.91853L4.28621 3.91833L5.08203 2.50639V9.51728C5.08203 9.62104 5.10029 9.71038 5.11654 9.77645C5.11863 9.78496 5.12084 9.79364 5.12305 9.80218L3.16441 10.6989ZM5.71881 1.67893C5.71799 1.67536 5.71713 1.67171 5.71623 1.66799C5.84018 1.65575 5.97002 1.71175 6.04005 1.836L7.21389 3.9186C7.35659 4.17178 7.60237 4.35035 7.88725 4.40783L10.2307 4.88066C10.4852 4.93202 10.5859 5.24183 10.4101 5.433L8.79219 7.19294C8.5955 7.4069 8.50162 7.69583 8.53499 7.98453L8.86612 7.94626L8.53499 7.98453L8.80945 10.3594C8.83927 10.6173 8.57572 10.8088 8.3396 10.7007L6.16583 9.70583C6.03797 9.64731 5.90084 9.6171 5.76342 9.61522C5.75315 9.5731 5.7487 9.54349 5.7487 9.51728V1.97559C5.7487 1.87233 5.7398 1.77046 5.71881 1.67893Z" stroke="#FFC816" stroke-width="0.666667" stroke-linejoin="round"/>
</svg>
