<svg width="10" height="10" viewBox="0 0 10 10" fill="none" xmlns="http://www.w3.org/2000/svg">
<path d="M4.49201 0.500001C4.71506 0.104267 5.28494 0.104267 5.50799 0.5L6.71981 2.64999C6.80302 2.79762 6.94635 2.90175 7.11247 2.93527L9.5317 3.4234C9.977 3.51325 10.1531 4.05523 9.84566 4.38965L8.17537 6.20655C8.06068 6.33131 8.00593 6.49979 8.02539 6.66814L8.30874 9.11982C8.36089 9.57108 7.89985 9.90604 7.48679 9.71699L5.24267 8.6899C5.08858 8.61938 4.91142 8.61938 4.75733 8.6899L2.51321 9.71699C2.10015 9.90604 1.63911 9.57108 1.69126 9.11982L1.97461 6.66814C1.99407 6.4998 1.93932 6.33131 1.82463 6.20655L0.154342 4.38965C-0.153096 4.05523 0.0230036 3.51325 0.468295 3.4234L2.88753 2.93527C3.05365 2.90175 3.19698 2.79762 3.28019 2.64999L4.49201 0.500001Z" fill="#CCCCCC"/>
<path d="M2.51321 9.71699L4.75733 8.68991C4.83022 8.65654 4.90827 8.63896 4.9866 8.63716H5.00516V0.2032C4.80521 0.201469 4.60451 0.300417 4.49201 0.5L3.28019 2.64999C3.19698 2.79762 3.05365 2.90175 2.88753 2.93527L0.468295 3.4234C0.0230035 3.51325 -0.153096 4.05523 0.154342 4.38965L1.82463 6.20655C1.93932 6.33131 1.99407 6.4998 1.97461 6.66815L1.69126 9.11982C1.63911 9.57108 2.10015 9.90604 2.51321 9.71699Z" fill="black"/>
</svg>
