<svg width="12" height="12" viewBox="0 0 12 12" fill="none" xmlns="http://www.w3.org/2000/svg">
<mask id="path-1-inside-1_9083_14088" fill="white">
<path fill-rule="evenodd" clip-rule="evenodd" d="M6 10C8.20914 10 10 8.20914 10 6C10 3.79086 8.20914 2 6 2C3.79086 2 2 3.79086 2 6C2 8.20914 3.79086 10 6 10ZM6.4 4.4C6.4 4.17909 6.22091 4 6 4C5.77909 4 5.6 4.17909 5.6 4.4V5.6H4.4C4.17909 5.6 4 5.77909 4 6C4 6.22091 4.17909 6.4 4.4 6.4H5.6V7.6C5.6 7.82091 5.77909 8 6 8C6.22091 8 6.4 7.82091 6.4 7.6V6.4H7.6C7.82091 6.4 8 6.22091 8 6C8 5.77909 7.82091 5.6 7.6 5.6H6.4V4.4Z"/>
</mask>
<path d="M5.6 4.4L5.1 4.4V4.4H5.6ZM5.6 5.6V6.1H6.1V5.6H5.6ZM5.6 6.4H6.1V5.9H5.6V6.4ZM6.4 6.4V5.9H5.9V6.4H6.4ZM6.4 5.6H5.9V6.1H6.4V5.6ZM9.5 6C9.5 7.933 7.933 9.5 6 9.5V10.5C8.48528 10.5 10.5 8.48528 10.5 6H9.5ZM6 2.5C7.933 2.5 9.5 4.067 9.5 6H10.5C10.5 3.51472 8.48528 1.5 6 1.5V2.5ZM2.5 6C2.5 4.067 4.067 2.5 6 2.5V1.5C3.51472 1.5 1.5 3.51472 1.5 6H2.5ZM6 9.5C4.067 9.5 2.5 7.933 2.5 6H1.5C1.5 8.48528 3.51472 10.5 6 10.5V9.5ZM6 4.5C5.94477 4.5 5.9 4.45523 5.9 4.4H6.9C6.9 3.90294 6.49706 3.5 6 3.5V4.5ZM6.1 4.4C6.1 4.45523 6.05523 4.5 6 4.5V3.5C5.50294 3.5 5.1 3.90294 5.1 4.4L6.1 4.4ZM6.1 5.6V4.4H5.1V5.6H6.1ZM4.4 6.1H5.6V5.1H4.4V6.1ZM4.5 6C4.5 6.05523 4.45523 6.1 4.4 6.1V5.1C3.90294 5.1 3.5 5.50294 3.5 6H4.5ZM4.4 5.9C4.45523 5.9 4.5 5.94477 4.5 6H3.5C3.5 6.49706 3.90294 6.9 4.4 6.9V5.9ZM5.6 5.9H4.4V6.9H5.6V5.9ZM6.1 7.6V6.4H5.1V7.6H6.1ZM6 7.5C6.05523 7.5 6.1 7.54477 6.1 7.6H5.1C5.1 8.09706 5.50294 8.5 6 8.5V7.5ZM5.9 7.6C5.9 7.54477 5.94477 7.5 6 7.5V8.5C6.49706 8.5 6.9 8.09706 6.9 7.6H5.9ZM5.9 6.4V7.6H6.9V6.4H5.9ZM7.6 5.9H6.4V6.9H7.6V5.9ZM7.5 6C7.5 5.94477 7.54477 5.9 7.6 5.9V6.9C8.09706 6.9 8.5 6.49706 8.5 6H7.5ZM7.6 6.1C7.54477 6.1 7.5 6.05523 7.5 6H8.5C8.5 5.50294 8.09706 5.1 7.6 5.1V6.1ZM6.4 6.1H7.6V5.1H6.4V6.1ZM5.9 4.4V5.6H6.9V4.4H5.9Z" fill="black" mask="url(#path-1-inside-1_9083_14088)"/>
</svg>
