<svg width="18" height="18" viewBox="0 0 18 18" fill="none" xmlns="http://www.w3.org/2000/svg">
<path d="M6.42718 5.87829L6.42771 5.87734L7.62109 3.76008V14.2764C7.62109 14.4321 7.64848 14.5661 7.67285 14.6652C7.67599 14.6779 7.6793 14.691 7.68262 14.7038L4.73855 16.0516C4.73854 16.0516 4.73852 16.0516 4.73851 16.0516C4.38434 16.2136 3.98906 15.9264 4.03378 15.5395L4.44547 11.9773C4.49552 11.5442 4.3547 11.1108 4.05967 10.7899L1.63277 8.14999C1.36916 7.86324 1.52016 7.39851 1.90197 7.32147L5.41708 6.61223C5.8444 6.52601 6.21308 6.25815 6.42713 5.87839L6.42718 5.87829ZM9.24679 14.5592C9.05499 14.4714 8.84931 14.4261 8.64317 14.4233C8.62777 14.3601 8.62109 14.3157 8.62109 14.2764V2.96387C8.62109 2.80898 8.60775 2.65618 8.57626 2.51888C8.57503 2.51353 8.57374 2.50806 8.57239 2.50247C8.75832 2.48411 8.95307 2.56812 9.05812 2.75449L10.8189 5.87839L11.2545 5.63288L10.8189 5.87839C11.0329 6.25815 11.4016 6.52601 11.8289 6.61223L15.344 7.32147C15.7258 7.39851 15.8768 7.86324 15.6132 8.14999L13.1863 10.7899C12.8913 11.1108 12.7505 11.5442 12.8005 11.9773L13.2122 15.5395C13.2569 15.9265 12.8616 16.2137 12.5075 16.0516L9.24679 14.5592Z" stroke="#FFC816" stroke-linejoin="round"/>
</svg>
