<svg width="18" height="18" viewBox="0 0 18 18" fill="none" xmlns="http://www.w3.org/2000/svg">
<g clip-path="url(#clip0_5591_1356)">
<path d="M8.06442 2.79108C8.25568 2.45176 8.74432 2.45176 8.93557 2.79108L10.6963 5.91498L11.1319 5.66947L10.6963 5.91498C10.9104 6.29474 11.2791 6.5626 11.7064 6.64882L15.2215 7.35807C15.6033 7.4351 15.7543 7.89983 15.4907 8.18658L13.0638 10.8265C12.7688 11.1474 12.6279 11.5808 12.678 12.0139L13.0897 15.5761C13.1344 15.963 12.7391 16.2503 12.3849 16.0882L9.12424 14.5958C8.72785 14.4144 8.27215 14.4144 7.87576 14.5958L4.61509 16.0882C4.26091 16.2503 3.8656 15.963 3.91032 15.5761L4.32201 12.0139C4.37206 11.5808 4.23124 11.1474 3.93621 10.8265L1.50931 8.18658C1.2457 7.89983 1.3967 7.4351 1.77851 7.35807L5.29362 6.64882C5.72094 6.5626 6.08962 6.29474 6.30367 5.91498L8.06442 2.79108Z" stroke="#FFC816" stroke-linejoin="round"/>
<path d="M8.5 14.5V2.5L6 6.5L1.5 7.5L4.5 11.5L4 16L8.5 14.5Z" fill="#FFC816"/>
</g>
<defs>
<clipPath id="clip0_5591_1356">
<rect width="18" height="18" fill="white"/>
</clipPath>
</defs>
</svg>
