<svg width="36" height="36" viewBox="0 0 36 36" fill="none" xmlns="http://www.w3.org/2000/svg">
<path d="M29.9 15.75H30.9V14.75V12.875C30.9 11.935 30.5521 11.0208 29.9135 10.3365L29.1824 11.0188L29.9135 10.3365C29.2726 9.64992 28.3881 9.25 27.45 9.25H8.55C7.61187 9.25 6.72736 9.64992 6.08653 10.3365C5.44788 11.0208 5.1 11.935 5.1 12.875V14.75V15.75H6.1H29.9ZM6.1 16H5.1V17V24.125C5.1 26.0602 6.58145 27.75 8.55 27.75H27.45C28.3881 27.75 29.2726 27.3501 29.9135 26.6635L29.1824 25.9812L29.9135 26.6635C30.5521 25.9792 30.9 25.065 30.9 24.125V17V16H29.9H6.1ZM23.2386 23.2618C23.2457 23.2542 23.251 23.2511 23.2531 23.25H26.7469C26.749 23.2511 26.7543 23.2542 26.7614 23.2618C26.7791 23.2808 26.8 23.3204 26.8 23.375C26.8 23.4296 26.7791 23.4692 26.7614 23.4882L27.4419 24.1233L26.7614 23.4882C26.7543 23.4958 26.749 23.4989 26.7469 23.5H23.2531C23.251 23.4989 23.2457 23.4958 23.2386 23.4882L22.5581 24.1233L23.2386 23.4882C23.2209 23.4692 23.2 23.4296 23.2 23.375C23.2 23.3204 23.2209 23.2808 23.2386 23.2618ZM5 12.875C5 11.8259 5.38962 10.8324 6.06372 10.1102C6.73564 9.39025 7.63162 9 8.55 9H27.45C27.9062 9 28.3598 9.09618 28.7856 9.28512C29.2115 9.47415 29.6032 9.75328 29.9363 10.1102C30.2695 10.4672 30.5372 10.8948 30.7209 11.37C30.9047 11.8453 31 12.3569 31 12.875V24.125C31 24.6431 30.9047 25.1547 30.7209 25.63C30.5372 26.1052 30.2695 26.5328 29.9363 26.8898C29.6032 27.2467 29.2115 27.5259 28.7856 27.7149C28.3598 27.9038 27.9062 28 27.45 28H8.55C7.63162 28 6.73564 27.6097 6.06372 26.8898C5.38962 26.1676 5 25.1741 5 24.125V12.875Z" fill="white" stroke="white" stroke-width="2"/>
</svg>
