<svg width="36" height="36" viewBox="0 0 36 36" fill="none" xmlns="http://www.w3.org/2000/svg">
<mask id="path-1-outside-1_9178_22613" maskUnits="userSpaceOnUse" x="-0.828288" y="-2.82843" width="39.598" height="39.598" fill="black">
<rect fill="white" x="-0.828288" y="-2.82843" width="39.598" height="39.598"/>
<path d="M24.171 8.45883C24.6031 8.02672 25.192 7.78675 25.808 7.79172C26.4241 7.79668 27.0169 8.04616 27.456 8.48528C27.8951 8.9244 28.1446 9.51719 28.1496 10.1332C28.1545 10.7493 27.9145 11.3381 27.4824 11.7702L23.425 15.8277L26.4832 25.4232C26.5564 25.6532 26.5658 25.8978 26.5101 26.1307C26.4545 26.3635 26.3361 26.5757 26.1676 26.7442L25.7691 27.1428C25.6875 27.2245 25.5885 27.287 25.4793 27.3256C25.3701 27.3643 25.2533 27.3782 25.1373 27.3664C25.0213 27.3546 24.9089 27.3174 24.8081 27.2574C24.7074 27.1974 24.6208 27.1161 24.5545 27.0193L19.5405 19.7122L15.7429 23.5098C15.6422 23.6102 15.5711 23.7366 15.5372 23.8753C15.5034 24.0141 15.508 24.1601 15.5507 24.2977L16.3794 26.9684C16.4858 27.3116 16.4975 27.6758 16.4133 28.0222C16.3291 28.3685 16.1521 28.684 15.9013 28.935L15.4879 29.3483C15.4049 29.4314 15.3039 29.4945 15.1925 29.533C15.0811 29.5714 14.9621 29.5842 14.8442 29.5703C14.7263 29.5565 14.6127 29.5164 14.5116 29.453C14.4105 29.3897 14.3246 29.3046 14.2601 29.2042L11.3169 24.6243L6.73707 21.6811C6.63664 21.6167 6.5516 21.5308 6.48823 21.4297C6.42486 21.3286 6.38478 21.2149 6.37095 21.0971C6.35711 20.9792 6.36988 20.8602 6.40831 20.7488C6.44674 20.6373 6.50984 20.5364 6.59296 20.4533L7.00629 20.04C7.2573 19.7891 7.57278 19.6122 7.91911 19.5279C8.26544 19.4437 8.62964 19.4554 8.97291 19.5618L11.6445 20.3896C11.7818 20.4322 11.9276 20.437 12.0662 20.4033C12.2048 20.3696 12.3311 20.2988 12.4315 20.1983L16.2282 16.4017L8.92291 11.3859C8.82613 11.3196 8.74483 11.233 8.68482 11.1322C8.62482 11.0315 8.58759 10.9191 8.57579 10.803C8.56399 10.687 8.57792 10.5702 8.61658 10.461C8.65523 10.3518 8.71767 10.2529 8.79942 10.1713L9.19702 9.77368C9.36559 9.60487 9.57788 9.48615 9.8109 9.43035C10.0439 9.37456 10.2888 9.38383 10.519 9.45716L20.1136 12.5162L24.171 8.45883Z"/>
</mask>
<path d="M24.171 8.45883L22.7568 7.04461L24.171 8.45883ZM27.456 8.48528L28.8702 7.07107L27.456 8.48528ZM23.425 15.8277L22.0108 14.4135C21.4819 14.9424 21.2923 15.7223 21.5195 16.435L23.425 15.8277ZM26.4832 25.4232L28.3888 24.8162L28.3887 24.8159L26.4832 25.4232ZM26.1676 26.7442L27.5818 28.1585L27.5822 28.158L26.1676 26.7442ZM25.7691 27.1428L24.3548 25.7286L24.3535 25.7299L25.7691 27.1428ZM24.5545 27.0193L26.2045 25.8891L26.2036 25.8877L24.5545 27.0193ZM19.5405 19.7122L21.1896 18.5806C20.8533 18.0904 20.3163 17.7753 19.7243 17.7206C19.1323 17.666 18.5467 17.8776 18.1263 18.298L19.5405 19.7122ZM15.7429 23.5098L17.1549 24.9262L17.1571 24.924L15.7429 23.5098ZM15.5507 24.2977L17.4609 23.705L17.4609 23.705L15.5507 24.2977ZM16.3794 26.9684L18.2898 26.3763L18.2896 26.3756L16.3794 26.9684ZM15.9013 28.935L17.3155 30.3492L17.3159 30.3488L15.9013 28.935ZM15.4879 29.3483L14.0737 27.9341L14.0731 27.9347L15.4879 29.3483ZM14.2601 29.2042L15.9435 28.1243L15.9426 28.1229L14.2601 29.2042ZM11.3169 24.6243L12.9994 23.5431C12.8444 23.3019 12.6394 23.0968 12.3982 22.9418L11.3169 24.6243ZM6.73707 21.6811L7.81833 19.9986L7.81698 19.9978L6.73707 21.6811ZM6.59296 20.4533L8.00657 21.8681L8.00717 21.8675L6.59296 20.4533ZM7.00629 20.04L5.59245 18.6254L5.59207 18.6258L7.00629 20.04ZM8.97291 19.5618L8.38089 21.4722L8.38098 21.4722L8.97291 19.5618ZM11.6445 20.3896L12.2372 18.4795L12.2364 18.4792L11.6445 20.3896ZM12.4315 20.1983L13.8456 21.6127L13.8457 21.6126L12.4315 20.1983ZM16.2282 16.4017L17.6424 17.8159C18.0627 17.3956 18.2743 16.8101 18.2197 16.2182C18.1652 15.6263 17.8502 15.0893 17.3602 14.7529L16.2282 16.4017ZM8.92291 11.3859L10.055 9.73711L10.0531 9.73585L8.92291 11.3859ZM8.79942 10.1713L10.2123 11.5868L10.2136 11.5855L8.79942 10.1713ZM9.19702 9.77368L10.6112 11.1879L10.6122 11.1869L9.19702 9.77368ZM10.519 9.45716L11.1265 7.55167L11.126 7.5515L10.519 9.45716ZM20.1136 12.5162L19.5061 14.4217C20.2188 14.649 20.9988 14.4595 21.5278 13.9305L20.1136 12.5162ZM25.5852 9.87304C25.6348 9.82343 25.7069 9.79097 25.7919 9.79165L25.8241 5.79178C24.677 5.78254 23.5714 6.23002 22.7568 7.04461L25.5852 9.87304ZM25.7919 9.79165C25.8784 9.79235 25.9704 9.82816 26.0418 9.8995L28.8702 7.07107C28.0633 6.26416 26.9697 5.80101 25.8241 5.79178L25.7919 9.79165ZM26.0418 9.8995C26.1131 9.97083 26.1489 10.0628 26.1496 10.1494L30.1495 10.1171C30.1403 8.97155 29.6771 7.87798 28.8702 7.07107L26.0418 9.8995ZM26.1496 10.1494C26.1503 10.2343 26.1178 10.3064 26.0682 10.356L28.8967 13.1845C29.7112 12.3699 30.1587 11.2643 30.1495 10.1171L26.1496 10.1494ZM26.0682 10.356L22.0108 14.4135L24.8392 17.2419L28.8967 13.1845L26.0682 10.356ZM21.5195 16.435L24.5776 26.0305L28.3887 24.8159L25.3306 15.2204L21.5195 16.435ZM24.5775 26.0302C24.5412 25.9163 24.5351 25.7904 24.5649 25.6659L28.4554 26.5954C28.5964 26.0053 28.5717 25.3901 28.3888 24.8162L24.5775 26.0302ZM24.5649 25.6659C24.5947 25.5411 24.6591 25.4244 24.7529 25.3305L27.5822 28.158C28.013 27.7269 28.3143 27.1858 28.4554 26.5954L24.5649 25.6659ZM24.7534 25.33L24.3548 25.7286L27.1833 28.557L27.5818 28.1585L24.7534 25.33ZM24.3535 25.7299C24.4836 25.5996 24.6405 25.5009 24.8119 25.4402L26.1467 29.211C26.5366 29.073 26.8914 28.8495 27.1846 28.5557L24.3535 25.7299ZM24.8119 25.4402C24.9833 25.3796 25.1636 25.3588 25.3396 25.3767L24.935 29.3561C25.343 29.3976 25.7569 29.3489 26.1467 29.211L24.8119 25.4402ZM25.3396 25.3767C25.5155 25.3945 25.6831 25.4506 25.8315 25.539L23.7847 28.9757C24.1346 29.1841 24.5271 29.3147 24.935 29.3561L25.3396 25.3767ZM25.8315 25.539C25.9799 25.6274 26.1071 25.7468 26.2045 25.8891L22.9044 28.1495C23.1344 28.4853 23.4348 28.7673 23.7847 28.9757L25.8315 25.539ZM26.2036 25.8877L21.1896 18.5806L17.8914 20.8437L22.9054 28.1508L26.2036 25.8877ZM18.1263 18.298L14.3287 22.0955L17.1571 24.924L20.9547 21.1264L18.1263 18.298ZM14.3309 22.0933C13.9688 22.4543 13.7147 22.9073 13.5942 23.4014L17.4803 24.3493C17.4274 24.5659 17.3156 24.766 17.1549 24.9262L14.3309 22.0933ZM13.5942 23.4014C13.4737 23.8952 13.4915 24.4099 13.6406 24.8905L17.4609 23.705C17.5246 23.9104 17.533 24.133 17.4803 24.3493L13.5942 23.4014ZM13.6406 24.8904L14.4693 27.5611L18.2896 26.3756L17.4609 23.705L13.6406 24.8904ZM14.4691 27.5604C14.4694 27.5613 14.468 27.5577 14.4699 27.5496L18.3567 28.4947C18.5271 27.794 18.5023 27.0619 18.2898 26.3763L14.4691 27.5604ZM14.4699 27.5496C14.472 27.5413 14.4771 27.5307 14.4867 27.5211L17.3159 30.3488C17.8271 29.8373 18.1863 29.1957 18.3567 28.4947L14.4699 27.5496ZM14.4871 27.5208L14.0737 27.9341L16.9022 30.7625L17.3155 30.3492L14.4871 27.5208ZM14.0731 27.9347C14.2055 27.8022 14.3656 27.7025 14.5404 27.6422L15.8446 31.4237C16.2423 31.2865 16.6043 31.0606 16.9028 30.7619L14.0731 27.9347ZM14.5404 27.6422C14.7152 27.582 14.8988 27.563 15.0773 27.584L14.6111 31.5567C15.0253 31.6053 15.447 31.5608 15.8446 31.4237L14.5404 27.6422ZM15.0773 27.584C15.2557 27.6049 15.425 27.6652 15.5738 27.7584L13.4493 31.1476C13.8003 31.3676 14.1969 31.5081 14.6111 31.5567L15.0773 27.584ZM15.5738 27.7584C15.7226 27.8517 15.8487 27.9765 15.9435 28.1243L12.5767 30.2841C12.8004 30.6327 13.0984 30.9276 13.4493 31.1476L15.5738 27.7584ZM15.9426 28.1229L12.9994 23.5431L9.6344 25.7056L12.5776 30.2855L15.9426 28.1229ZM12.3982 22.9418L7.81833 19.9986L5.65582 23.3637L10.2357 26.3069L12.3982 22.9418ZM7.81698 19.9978C7.96472 20.0925 8.08959 20.2187 8.18282 20.3674L4.79365 22.4919C5.01362 22.8429 5.30856 23.1409 5.65717 23.3645L7.81698 19.9978ZM8.18282 20.3674C8.27609 20.5162 8.33637 20.6855 8.35731 20.8639L4.38458 21.3302C4.43319 21.7443 4.57363 22.141 4.79365 22.4919L8.18282 20.3674ZM8.35731 20.8639C8.37827 21.0425 8.35928 21.2261 8.29903 21.4008L4.51759 20.0967C4.38049 20.4942 4.33596 20.916 4.38458 21.3302L8.35731 20.8639ZM8.29903 21.4008C8.23872 21.5757 8.13903 21.7358 8.00657 21.8681L5.17935 19.0385C4.88065 19.337 4.65475 19.699 4.51759 20.0967L8.29903 21.4008ZM8.00717 21.8675L8.4205 21.4542L5.59207 18.6258L5.17875 19.0391L8.00717 21.8675ZM8.42012 21.4546C8.41059 21.4641 8.39999 21.4693 8.39163 21.4713L7.44658 17.5846C6.74556 17.755 6.10401 18.1141 5.59245 18.6254L8.42012 21.4546ZM8.39163 21.4713C8.3836 21.4733 8.37995 21.4719 8.38089 21.4722L9.56493 17.6514C8.87934 17.439 8.14728 17.4142 7.44658 17.5846L8.39163 21.4713ZM8.38098 21.4722L11.0525 22.3L12.2364 18.4792L9.56485 17.6514L8.38098 21.4722ZM11.0517 22.2998C11.5315 22.4486 12.0453 22.4666 12.5385 22.3467L11.5939 18.4598C11.8099 18.4074 12.0321 18.4158 12.2372 18.4795L11.0517 22.2998ZM12.5385 22.3467C13.032 22.2268 13.4845 21.9737 13.8456 21.6127L11.0174 18.784C11.1776 18.6238 11.3776 18.5124 11.5939 18.4598L12.5385 22.3467ZM13.8457 21.6126L17.6424 17.8159L14.814 14.9875L11.0173 18.7841L13.8457 21.6126ZM17.3602 14.7529L10.055 9.73711L7.79086 13.0347L15.0961 18.0505L17.3602 14.7529ZM10.0531 9.73585C10.1954 9.83328 10.3148 9.96044 10.4032 10.1088L6.96649 12.1556C7.17488 12.5055 7.45689 12.8059 7.7927 13.0359L10.0531 9.73585ZM10.4032 10.1088C10.4916 10.2573 10.5476 10.4249 10.5655 10.6007L6.58605 11.0054C6.62752 11.4133 6.75807 11.8057 6.96649 12.1556L10.4032 10.1088ZM10.5655 10.6007C10.5834 10.7767 10.5626 10.9571 10.5019 11.1284L6.73121 9.79366C6.59324 10.1834 6.54456 10.5973 6.58605 11.0054L10.5655 10.6007ZM10.5019 11.1284C10.4413 11.2999 10.3426 11.4568 10.2123 11.5868L7.38651 8.75577C7.09274 9.04899 6.86921 9.40378 6.73121 9.79366L10.5019 11.1284ZM10.2136 11.5855L10.6112 11.1879L7.78281 8.35947L7.3852 8.75707L10.2136 11.5855ZM10.6122 11.1869C10.5183 11.2809 10.4015 11.3455 10.2766 11.3754L9.3452 7.48533C8.75427 7.62682 8.21285 7.92882 7.78182 8.36046L10.6122 11.1869ZM10.2766 11.3754C10.152 11.4052 10.026 11.3991 9.912 11.3628L11.126 7.5515C10.5516 7.36852 9.9358 7.34392 9.3452 7.48533L10.2766 11.3754ZM9.91146 11.3627L19.5061 14.4217L20.7211 10.6108L11.1265 7.55167L9.91146 11.3627ZM21.5278 13.9305L25.5852 9.87304L22.7568 7.04461L18.6994 11.102L21.5278 13.9305Z" fill="white" mask="url(#path-1-outside-1_9178_22613)"/>
</svg>
