<svg width="36" height="36" viewBox="0 0 36 36" fill="none" xmlns="http://www.w3.org/2000/svg">
<path d="M9.81818 24.3846L8.81818 24.3846L9.81818 24.3846ZM23.4545 24.3846H24.4545H23.4545ZM15.3409 23.3846C14.7886 23.3846 14.3409 23.8323 14.3409 24.3846C14.3409 24.9369 14.7886 25.3846 15.3409 25.3846V23.3846ZM22.0909 10.7846H23.0909H22.0909ZM3 9C2.44772 9 2 9.44772 2 10C2 10.5523 2.44772 11 3 11V9ZM9.34091 25.3846C9.89319 25.3846 10.3409 24.9369 10.3409 24.3846C10.3409 23.8323 9.89319 23.3846 9.34091 23.3846V25.3846ZM6.72727 17.1923C6.72727 16.64 6.27956 16.1923 5.72727 16.1923C5.17499 16.1923 4.72727 16.64 4.72727 17.1923H6.72727ZM4.36364 12.9231C3.81135 12.9231 3.36364 13.3708 3.36364 13.9231C3.36364 14.4754 3.81135 14.9231 4.36364 14.9231V12.9231ZM9.81818 14.9231C10.3705 14.9231 10.8182 14.4754 10.8182 13.9231C10.8182 13.3708 10.3705 12.9231 9.81818 12.9231V14.9231ZM22.0909 12.9231C21.5386 12.9231 21.0909 13.3708 21.0909 13.9231C21.0909 14.4754 21.5386 14.9231 22.0909 14.9231V12.9231ZM29.7409 13.9231L29.7411 12.9231H29.7409V13.9231ZM30.4882 14.3886L31.3955 13.9682L31.3952 13.9676L30.4882 14.3886ZM32.9291 19.656L32.0218 20.0765L32.0223 20.0776L32.9291 19.656ZM33 19.9738H34L34 19.9715L33 19.9738ZM33 23.6H34H33ZM32.1818 24.3846V25.3846V24.3846ZM29.5909 23.3846C29.0386 23.3846 28.5909 23.8323 28.5909 24.3846C28.5909 24.9369 29.0386 25.3846 29.5909 25.3846V23.3846ZM12.5455 28C13.5208 28 14.4642 27.6288 15.1661 26.9557L13.7818 25.5122C13.4608 25.8201 13.0168 26 12.5455 26V28ZM15.1661 26.9557C15.8694 26.2813 16.2727 25.3573 16.2727 24.3846H14.2727C14.2727 24.7992 14.1014 25.2057 13.7818 25.5122L15.1661 26.9557ZM16.2727 24.3846C16.2727 23.4119 15.8694 22.488 15.1661 21.8135L13.7818 23.257C14.1014 23.5635 14.2727 23.97 14.2727 24.3846H16.2727ZM15.1661 21.8135C14.4642 21.1404 13.5208 20.7692 12.5455 20.7692V22.7692C13.0168 22.7692 13.4608 22.9492 13.7818 23.257L15.1661 21.8135ZM12.5455 20.7692C11.5701 20.7692 10.6267 21.1404 9.92483 21.8135L11.3091 23.257C11.6301 22.9492 12.0742 22.7692 12.5455 22.7692V20.7692ZM9.92483 21.8135C9.2215 22.488 8.81818 23.4119 8.81818 24.3846L10.8182 24.3846C10.8182 23.97 10.9895 23.5635 11.3091 23.257L9.92483 21.8135ZM8.81818 24.3846C8.81818 25.3573 9.2215 26.2813 9.92483 26.9557L11.3091 25.5122C10.9895 25.2057 10.8182 24.7992 10.8182 24.3846L8.81818 24.3846ZM9.92483 26.9557C10.6267 27.6288 11.5701 28 12.5455 28V26C12.0742 26 11.6301 25.8201 11.3091 25.5122L9.92483 26.9557ZM26.1818 28C27.1572 28 28.1005 27.6288 28.8024 26.9557L27.4181 25.5122C27.0971 25.8201 26.6531 26 26.1818 26V28ZM28.8024 26.9557C29.5058 26.2813 29.9091 25.3573 29.9091 24.3846H27.9091C27.9091 24.7992 27.7377 25.2057 27.4181 25.5122L28.8024 26.9557ZM29.9091 24.3846C29.9091 23.4119 29.5058 22.488 28.8024 21.8135L27.4181 23.257C27.7377 23.5635 27.9091 23.97 27.9091 24.3846H29.9091ZM28.8024 21.8135C28.1005 21.1404 27.1572 20.7692 26.1818 20.7692V22.7692C26.6531 22.7692 27.0971 22.9492 27.4181 23.257L28.8024 21.8135ZM26.1818 20.7692C25.2065 20.7692 24.2631 21.1404 23.5612 21.8135L24.9455 23.257C25.2665 22.9492 25.7105 22.7692 26.1818 22.7692V20.7692ZM23.5612 21.8135C22.8579 22.488 22.4545 23.4119 22.4545 24.3846L24.4545 24.3846C24.4545 23.97 24.6259 23.5635 24.9455 23.257L23.5612 21.8135ZM22.4545 24.3846C22.4545 25.3573 22.8579 26.2813 23.5612 26.9557L24.9455 25.5122C24.6259 25.2057 24.4545 24.7992 24.4545 24.3846L22.4545 24.3846ZM23.5612 26.9557C24.2631 27.6288 25.2065 28 26.1818 28V26C25.7105 26 25.2665 25.8201 24.9455 25.5122L23.5612 26.9557ZM15.3409 25.3846H22.0909V23.3846H15.3409V25.3846ZM23.0909 24.3846V10.7846H21.0909V24.3846H23.0909ZM23.0909 10.7846C23.0909 10.2975 22.8887 9.83919 22.5434 9.50805L21.1591 10.9516C21.1207 10.9147 21.0909 10.8556 21.0909 10.7846H23.0909ZM22.5434 9.50805C22.1995 9.17828 21.7417 9 21.2727 9V11C21.2377 11 21.1961 10.9871 21.1591 10.9516L22.5434 9.50805ZM21.2727 9H3V11H21.2727V9ZM9.34091 23.3846H6.54545V25.3846H9.34091V23.3846ZM6.54545 23.3846C6.56364 23.3846 6.58257 23.388 6.60151 23.3955L5.86319 25.2543C6.08066 25.3406 6.31238 25.3846 6.54545 25.3846V23.3846ZM6.60151 23.3955C6.6205 23.4031 6.6404 23.4152 6.65906 23.4331L5.27477 24.8766C5.44537 25.0402 5.64566 25.1679 5.86319 25.2543L6.60151 23.3955ZM6.65906 23.4331C6.67781 23.451 6.69502 23.4747 6.70758 23.5037L4.87153 24.2968C4.96632 24.5162 5.10407 24.7129 5.27477 24.8766L6.65906 23.4331ZM6.70758 23.5037C6.72018 23.5329 6.72727 23.5658 6.72727 23.6H4.72727C4.72727 23.8403 4.77669 24.0772 4.87153 24.2968L6.70758 23.5037ZM6.72727 23.6V17.1923H4.72727V23.6H6.72727ZM4.36364 14.9231H9.81818V12.9231H4.36364V14.9231ZM22.0909 14.9231H29.7409V12.9231H22.0909V14.9231ZM29.7407 14.9231C29.7144 14.9231 29.6857 14.9159 29.6577 14.8985L30.7152 13.201C30.422 13.0183 30.0837 12.9232 29.7411 12.9231L29.7407 14.9231ZM29.6577 14.8985C29.6293 14.8808 29.6006 14.8516 29.5811 14.8096L31.3952 13.9676C31.2471 13.6485 31.0088 13.3839 30.7152 13.201L29.6577 14.8985ZM29.5809 14.8091L32.0218 20.0765L33.8364 19.2355L31.3955 13.9682L29.5809 14.8091ZM32.0223 20.0776C32.0082 20.0472 32.0001 20.0125 32 19.9761L34 19.9715C33.9994 19.716 33.943 19.4648 33.8359 19.2344L32.0223 20.0776ZM32 19.9738V23.6H34V19.9738H32ZM32 23.6C32 23.5658 32.0071 23.5329 32.0197 23.5037L33.8557 24.2968C33.9506 24.0772 34 23.8403 34 23.6H32ZM32.0197 23.5037C32.0323 23.4747 32.0495 23.451 32.0682 23.4331L33.4525 24.8766C33.6232 24.7129 33.761 24.5162 33.8557 24.2968L32.0197 23.5037ZM32.0682 23.4331C32.0869 23.4152 32.1068 23.4031 32.1258 23.3955L32.8641 25.2543C33.0816 25.1679 33.2819 25.0402 33.4525 24.8766L32.0682 23.4331ZM32.1258 23.3955C32.1447 23.388 32.1636 23.3846 32.1818 23.3846V25.3846C32.4149 25.3846 32.6466 25.3406 32.8641 25.2543L32.1258 23.3955ZM32.1818 23.3846H29.5909V25.3846H32.1818V23.3846ZM22.0909 25.3846H23.4545V23.3846H22.0909V25.3846Z" fill="white"/>
</svg>
