<svg width="36" height="36" viewBox="0 0 36 36" fill="none" xmlns="http://www.w3.org/2000/svg">
<path fill-rule="evenodd" clip-rule="evenodd" d="M21.6193 5.31873C19.7129 3.56042 16.776 3.56042 14.8696 5.31873L5.04077 14.3842L5.03829 14.3865C4.70809 14.6927 4.44525 15.0643 4.26651 15.4776C4.08839 15.8896 3.99766 16.3339 4.00005 16.7826V27.8989C4.00005 28.7594 4.34187 29.5847 4.95032 30.1931C5.55877 30.8016 6.38401 31.1434 7.24448 31.1434H29.2444C30.1049 31.1434 30.9301 30.8016 31.5386 30.1931C32.147 29.5847 32.4888 28.7594 32.4888 27.8989V16.7826C32.4912 16.3339 32.4005 15.8895 32.2224 15.4776C32.0436 15.0643 31.7808 14.6927 31.4506 14.3865L31.4481 14.3842L21.6193 5.31873ZM16.557 7.14826C17.5102 6.2691 18.9787 6.2691 19.9319 7.14825L29.7582 16.2114L29.7593 16.2124C29.8357 16.2835 29.8965 16.3697 29.9379 16.4655C29.9796 16.5618 30.0007 16.6656 30 16.7705H30V16.7789V27.8989C30 28.0993 29.9204 28.2915 29.7787 28.4332C29.637 28.5749 29.4448 28.6545 29.2444 28.6545H26.2451V23.4C26.2451 23.1 26.1672 22.8085 25.999 22.5561C25.8349 22.3101 25.6233 22.1585 25.4422 22.068C25.265 21.9794 25.0999 21.9401 24.9875 21.9213C24.9289 21.9116 24.878 21.9063 24.8377 21.9034C24.8282 21.9028 24.8192 21.9022 24.8107 21.9018C24.8011 21.9013 24.7921 21.9009 24.7839 21.9006L24.7625 21.9001L24.7533 21.9L24.749 21.8999L24.747 21.8999L24.746 21.8999C24.7455 21.8999 24.745 21.8999 24.745 22.8999V21.8999H22.7441V16.399C22.7441 16.099 22.6662 15.8075 22.498 15.5551C22.3339 15.3091 22.1223 15.1575 21.9412 15.067C21.764 14.9784 21.5989 14.9391 21.4865 14.9203C21.4279 14.9106 21.377 14.9053 21.3367 14.9024C21.3164 14.901 21.2984 14.9001 21.2829 14.8996L21.2615 14.8991L21.2523 14.899L21.248 14.8989L21.246 14.8989L21.245 14.8989C21.2445 14.8989 21.244 14.8989 21.244 15.8989V14.8989H15.2443C14.9443 14.8989 14.6528 14.9768 14.4005 15.145C14.1544 15.309 14.0028 15.5205 13.9122 15.7017C13.8236 15.8789 13.7843 16.0441 13.7655 16.1564C13.7558 16.215 13.7505 16.266 13.7476 16.3063C13.7462 16.3266 13.7453 16.3446 13.7448 16.3601L13.7443 16.3814L13.7442 16.3907L13.7441 16.395L13.7441 16.397L13.7441 16.398C13.7441 16.3985 13.7441 16.399 14.7441 16.399L13.7441 16.399V21.8999H11.7453C11.4453 21.8999 11.1538 21.9778 10.9015 22.146C10.6554 22.31 10.5038 22.5215 10.4132 22.7027C10.3246 22.8799 10.2853 23.0451 10.2665 23.1574C10.2568 23.216 10.2515 23.267 10.2486 23.3073C10.2472 23.3276 10.2463 23.3456 10.2458 23.3611L10.2453 23.3824L10.2452 23.3917L10.2451 23.396L10.2451 23.398L10.2451 23.399C10.2451 23.3995 10.2451 23.4 11.2451 23.4H10.2451V28.6545H7.24448C7.0441 28.6545 6.85192 28.5749 6.71023 28.4332C6.56854 28.2915 6.48893 28.0993 6.48893 27.8989V16.7789H6.48896L6.48891 16.7705C6.4882 16.6656 6.50933 16.5618 6.55095 16.4655C6.5924 16.3697 6.65327 16.2834 6.72971 16.2123L6.73068 16.2114L16.557 7.14826ZM17.2451 28.6545H12.2451V23.8999H17.2451V28.6545ZM24.2451 28.6545H19.2451V23.8999H24.2451V28.6545ZM15.7441 21.8979V16.8989H20.7441V21.8979H15.7441Z" fill="white"/>
</svg>
