<svg width="56" height="56" viewBox="0 0 56 56" fill="none" xmlns="http://www.w3.org/2000/svg">
<rect width="56" height="56" rx="28" fill="#FFE6E7"/>
<path fill-rule="evenodd" clip-rule="evenodd" d="M31.6193 15.3187C29.7129 13.5604 26.776 13.5604 24.8696 15.3187L15.0408 24.3842L15.0383 24.3865C14.7081 24.6927 14.4453 25.0643 14.2665 25.4776C14.0884 25.8896 13.9977 26.3339 14 26.7826V37.8989C14 38.7594 14.3419 39.5847 14.9503 40.1931C15.5588 40.8016 16.384 41.1434 17.2445 41.1434H39.2444C40.1049 41.1434 40.9301 40.8016 41.5386 40.1931C42.147 39.5847 42.4888 38.7594 42.4888 37.8989V26.7826C42.4912 26.3339 42.4005 25.8895 42.2224 25.4776C42.0436 25.0643 41.7808 24.6927 41.4506 24.3865L41.4481 24.3842L31.6193 15.3187ZM26.557 17.1483C27.5102 16.2691 28.9787 16.2691 29.9319 17.1483L39.7582 26.2114L39.7593 26.2124C39.8357 26.2835 39.8965 26.3697 39.9379 26.4655C39.9796 26.5618 40.0007 26.6656 40 26.7705H40V26.7789V37.8989C40 38.0993 39.9204 38.2915 39.7787 38.4332C39.637 38.5749 39.4448 38.6545 39.2444 38.6545H36.2451V33.4C36.2451 33.1 36.1672 32.8085 35.999 32.5561C35.8349 32.3101 35.6233 32.1585 35.4422 32.068C35.265 31.9794 35.0999 31.9401 34.9875 31.9213C34.9289 31.9116 34.878 31.9063 34.8377 31.9034C34.8282 31.9028 34.8192 31.9022 34.8107 31.9018C34.8011 31.9013 34.7921 31.9009 34.7839 31.9006L34.7625 31.9001L34.7533 31.9L34.749 31.8999L34.747 31.8999L34.746 31.8999C34.7455 31.8999 34.745 31.8999 34.745 32.8999V31.8999H32.7441V26.399C32.7441 26.099 32.6662 25.8075 32.498 25.5551C32.3339 25.3091 32.1223 25.1575 31.9412 25.067C31.764 24.9784 31.5989 24.9391 31.4865 24.9203C31.4279 24.9106 31.377 24.9053 31.3367 24.9024C31.3164 24.901 31.2984 24.9001 31.2829 24.8996L31.2615 24.8991L31.2523 24.899L31.248 24.8989L31.246 24.8989L31.245 24.8989C31.2445 24.8989 31.244 24.8989 31.244 25.8989V24.8989H25.2443C24.9443 24.8989 24.6528 24.9768 24.4005 25.145C24.1544 25.309 24.0028 25.5205 23.9122 25.7017C23.8236 25.8789 23.7843 26.0441 23.7655 26.1564C23.7558 26.215 23.7505 26.266 23.7476 26.3063C23.7462 26.3266 23.7453 26.3446 23.7448 26.3601L23.7443 26.3814L23.7442 26.3907L23.7441 26.395L23.7441 26.397L23.7441 26.398C23.7441 26.3985 23.7441 26.399 24.7441 26.399L23.7441 26.399V31.8999H21.7453C21.4453 31.8999 21.1538 31.9778 20.9015 32.146C20.6554 32.31 20.5038 32.5215 20.4132 32.7027C20.3246 32.8799 20.2853 33.0451 20.2665 33.1574C20.2568 33.216 20.2515 33.267 20.2486 33.3073C20.2472 33.3276 20.2463 33.3456 20.2458 33.3611L20.2453 33.3824L20.2452 33.3917L20.2451 33.396L20.2451 33.398L20.2451 33.399C20.2451 33.3995 20.2451 33.4 21.2451 33.4H20.2451V38.6545H17.2445C17.0441 38.6545 16.8519 38.5749 16.7102 38.4332C16.5685 38.2915 16.4889 38.0993 16.4889 37.8989V26.7789H16.489L16.4889 26.7705C16.4882 26.6656 16.5093 26.5618 16.551 26.4655C16.5924 26.3697 16.6533 26.2834 16.7297 26.2123L16.7307 26.2114L26.557 17.1483ZM27.2451 38.6545H22.2451V33.8999H27.2451V38.6545ZM34.2451 38.6545H29.2451V33.8999H34.2451V38.6545ZM25.7441 31.8979V26.8989H30.7441V31.8979H25.7441Z" fill="white"/>
</svg>
