<svg width="36" height="36" viewBox="0 0 36 36" fill="none" xmlns="http://www.w3.org/2000/svg">
<path fill-rule="evenodd" clip-rule="evenodd" d="M11.9778 7H24.0222C25.6668 7 27 8.3332 27 9.97778V25.0222C27 26.6668 25.6668 28 24.0222 28H11.9778C10.3332 28 9 26.6668 9 25.0222V9.97778C9 8.3332 10.3332 7 11.9778 7ZM7 9.97778C7 7.22863 9.22863 5 11.9778 5H24.0222C26.7714 5 29 7.22863 29 9.97778V25.0222C29 27.7714 26.7714 30 24.0222 30H11.9778C9.22863 30 7 27.7714 7 25.0222V9.97778ZM11.7549 11.9999C11.7549 11.3126 12.312 10.7555 12.9993 10.7555H21.9993C22.6866 10.7555 23.2438 11.3126 23.2438 11.9999C23.2438 12.6872 22.6866 13.2444 21.9993 13.2444H12.9993C12.312 13.2444 11.7549 12.6872 11.7549 11.9999ZM11.7556 18C11.7556 17.3127 12.3127 16.7556 13 16.7556H22C22.6873 16.7556 23.2444 17.3127 23.2444 18C23.2444 18.6873 22.6873 19.2444 22 19.2444H13C12.3127 19.2444 11.7556 18.6873 11.7556 18Z" fill="white"/>
</svg>
