<svg width="20" height="20" viewBox="0 0 20 20" fill="none" xmlns="http://www.w3.org/2000/svg">
<path d="M7.5 7H6.26847C5.87812 7 5.59171 6.63317 5.68638 6.25448L5.88638 5.45448C5.95316 5.18738 6.19315 5 6.46847 5H11.9C12.2314 5 12.5 5.26863 12.5 5.6V6.9C12.5 7.23137 12.7686 7.5 13.1 7.5H14.9521C15.2624 7.5 15.5215 7.73663 15.5496 8.04568L15.9405 12.3457C15.9725 12.697 15.6958 13 15.343 13H14.5M5 10L4.61644 12.3014C4.55549 12.6671 4.83751 13 5.20828 13H5.7M8.5 13H11.5" stroke="black" stroke-width="0.8" stroke-linecap="round" stroke-linejoin="round"/>
<path d="M4 8.5H6" stroke="black" stroke-width="0.8" stroke-linecap="round"/>
<circle cx="7" cy="13" r="1.1" stroke="black" stroke-width="0.8"/>
<circle cx="13" cy="13" r="1.1" stroke="black" stroke-width="0.8"/>
</svg>
