<svg width="16" height="16" viewBox="0 0 16 16" fill="none" xmlns="http://www.w3.org/2000/svg">
<path d="M7.2032 8C7.2032 8.27614 6.97934 8.5 6.7032 8.5C6.42706 8.5 6.2032 8.27614 6.2032 8C6.2032 7.72386 6.42706 7.5 6.7032 7.5C6.97934 7.5 7.2032 7.72386 7.2032 8Z" fill="black"/>
<path d="M9.7032 8.5C9.97934 8.5 10.2032 8.27614 10.2032 8C10.2032 7.72386 9.97934 7.5 9.7032 7.5C9.42706 7.5 9.2032 7.72386 9.2032 8C9.2032 8.27614 9.42706 8.5 9.7032 8.5Z" fill="black"/>
<path fill-rule="evenodd" clip-rule="evenodd" d="M1.43172 6.34757C1.43172 7.35825 2.21109 8.18691 3.20162 8.26531C2.58879 8.81458 2.2032 9.61226 2.2032 10.5C2.2032 12.1569 3.54635 13.5 5.2032 13.5H11.2032C12.8601 13.5 14.2032 12.1569 14.2032 10.5C14.2032 9.61371 13.8189 8.81719 13.2078 8.268C14.2168 8.20856 15.0167 7.37148 15.0167 6.34757C15.0167 4.54027 13.7432 2.73293 10 2.52073L9.99801 2.52061C9.7574 2.50701 9.50659 2.5 9.24526 2.5C9.1337 2.5 9.06678 2.5307 9.03635 2.58689C8.76761 2.52995 8.4889 2.5 8.2032 2.5C7.93075 2.5 7.66467 2.52724 7.40752 2.57914C7.37523 2.52789 7.30945 2.5 7.20314 2.5C6.94181 2.5 6.69099 2.50701 6.45038 2.52061L6.44839 2.52073C2.70516 2.73293 1.43172 4.54027 1.43172 6.34757ZM3.31891 4.48324C3.75502 4.13436 4.41973 3.81867 5.40293 3.64369C4.66254 4.36964 4.2032 5.38118 4.2032 6.5C4.2032 6.56823 4.20491 6.63607 4.20829 6.70346C4.06893 7.03699 3.7396 7.27138 3.35552 7.27138C2.84532 7.27138 2.43172 6.85777 2.43172 6.34757C2.43172 5.65127 2.68265 4.99225 3.31891 4.48324ZM10.9943 3.63477C11.7401 4.36134 12.2032 5.37659 12.2032 6.5C12.2032 6.53293 12.2028 6.56576 12.202 6.5985L12.2032 6.5972C12.3121 6.98613 12.6692 7.27138 13.0929 7.27138C13.6031 7.27138 14.0167 6.85777 14.0167 6.34757C14.0167 5.65127 13.7657 4.99225 13.1295 4.48324C12.6859 4.12835 12.0057 3.8078 10.9943 3.63477ZM11.7645 8.57957C11.2345 8.42505 10.93 7.87026 11.0842 7.34017C11.1615 7.07475 11.2032 6.79311 11.2032 6.5C11.2032 4.84315 9.86006 3.5 8.2032 3.5C6.54635 3.5 5.2032 4.84315 5.2032 6.5C5.2032 6.79311 5.24494 7.07476 5.32217 7.34017C5.4764 7.87026 5.17189 8.42505 4.64188 8.57957C3.80966 8.82221 3.2032 9.59158 3.2032 10.5C3.2032 11.6046 4.09863 12.5 5.2032 12.5H7.7032V10.3662C7.4043 10.1933 7.2032 9.87014 7.2032 9.5C7.2032 8.94772 7.65092 8.5 8.2032 8.5C8.75549 8.5 9.2032 8.94772 9.2032 9.5C9.2032 9.87014 9.0021 10.1933 8.7032 10.3662V12.5H11.2032C12.3078 12.5 13.2032 11.6046 13.2032 10.5C13.2032 9.59158 12.5967 8.82221 11.7645 8.57957Z" fill="black"/>
</svg>
