<svg width="16" height="16" viewBox="0 0 16 16" fill="none" xmlns="http://www.w3.org/2000/svg">
<path fill-rule="evenodd" clip-rule="evenodd" d="M6.7143 3C6.56591 3 6.42519 3.06591 6.33019 3.17991L5.07535 4.68572H3.62381C3.19315 4.68572 2.78013 4.8568 2.4756 5.16133C2.17108 5.46585 2 5.87887 2 6.30954V11.3667C2 11.7974 2.17108 12.2104 2.4756 12.5149C2.78013 12.8194 3.19315 12.9905 3.62381 12.9905H12.6143C13.045 12.9905 13.458 12.8194 13.7625 12.5149C14.0671 12.2104 14.2381 11.7974 14.2381 11.3667V6.30954C14.2381 5.87887 14.0671 5.46585 13.7625 5.16133C13.458 4.8568 13.045 4.68572 12.6143 4.68572H11.1628L9.90795 3.17991C9.81295 3.06591 9.67223 3 9.52384 3H6.7143ZM5.69365 5.50581L6.94849 4H9.28965L10.5445 5.50581C10.6395 5.61981 10.7802 5.68572 10.9286 5.68572H12.6143C12.7798 5.68572 12.9384 5.75144 13.0554 5.86843C13.1724 5.98542 13.2381 6.14409 13.2381 6.30954V11.3667C13.2381 11.5321 13.1724 11.6908 13.0554 11.8078C12.9384 11.9248 12.7798 11.9905 12.6143 11.9905H3.62381C3.45837 11.9905 3.2997 11.9248 3.18271 11.8078C3.06572 11.6908 3 11.5321 3 11.3667V6.30954C3 6.14409 3.06572 5.98542 3.18271 5.86843C3.2997 5.75144 3.45837 5.68572 3.62381 5.68572H5.30954C5.45793 5.68572 5.59865 5.61981 5.69365 5.50581ZM6.93332 8.55716C6.93332 7.90231 7.46418 7.37144 8.11904 7.37144C8.77389 7.37144 9.30476 7.90231 9.30476 8.55716C9.30476 9.21202 8.77389 9.74288 8.11904 9.74288C7.46418 9.74288 6.93332 9.21202 6.93332 8.55716ZM8.11904 6.37144C6.9119 6.37144 5.93332 7.35002 5.93332 8.55716C5.93332 9.7643 6.9119 10.7429 8.11904 10.7429C9.32618 10.7429 10.3048 9.7643 10.3048 8.55716C10.3048 7.35002 9.32618 6.37144 8.11904 6.37144Z" fill="black"/>
</svg>
