<svg width="12" height="12" viewBox="0 0 12 12" fill="none" xmlns="http://www.w3.org/2000/svg">
<path d="M8.9184 6.21648L6.00324 9L3.08808 6.21648C2.8958 6.03609 2.74434 5.81927 2.64325 5.57968C2.54215 5.34008 2.49361 5.0829 2.50067 4.82433C2.50774 4.56575 2.57026 4.31139 2.6843 4.07726C2.79834 3.84313 2.96142 3.6343 3.16329 3.46391C3.36515 3.29353 3.60142 3.16529 3.85722 3.08727C4.11302 3.00925 4.3828 2.98313 4.64958 3.01057C4.91636 3.03801 5.17436 3.1184 5.40733 3.24669C5.6403 3.37498 5.8432 3.54839 6.00324 3.75599C6.16397 3.54989 6.3671 3.378 6.59991 3.25108C6.83272 3.12415 7.0902 3.04491 7.35623 3.01833C7.62227 2.99176 7.89113 3.0184 8.14598 3.09661C8.40084 3.17481 8.63622 3.30289 8.83737 3.47283C9.03853 3.64276 9.20114 3.8509 9.31502 4.08421C9.4289 4.31753 9.49161 4.57099 9.49921 4.82874C9.50682 5.08649 9.45916 5.34298 9.35922 5.58216C9.25928 5.82133 9.10921 6.03805 8.9184 6.21873" stroke="black" stroke-width="0.5" stroke-linecap="round" stroke-linejoin="round"/>
</svg>
