<svg width="24" height="24" viewBox="0 0 24 24" fill="none" xmlns="http://www.w3.org/2000/svg">
<path d="M6.93989 7.93563C7.23775 7.639 7.59137 7.4037 7.98054 7.24316C8.36972 7.08263 8.78684 7 9.20809 7C9.62933 7 10.0465 7.08263 10.4356 7.24316C10.8248 7.4037 11.1784 7.639 11.4763 7.93563L12.5001 8.95516L13.5238 7.93563C14.1255 7.33657 14.9415 7.00006 15.7923 7.00013C16.6431 7.00019 17.459 7.33683 18.0606 7.93598C18.6621 8.53514 19.0001 9.34773 19 10.195C18.9999 11.0423 18.6619 11.8548 18.0602 12.4539L17.0365 13.4727L17.0456 13.4818L12.5092 18L12.5001 17.9909L12.4909 18L7.95454 13.4818L7.96367 13.4727L6.93989 12.4539C6.64192 12.1572 6.40554 11.805 6.24427 11.4174C6.08301 11.0298 6 10.6143 6 10.1947C6 9.77517 6.08301 9.3597 6.24427 8.97208C6.40554 8.58445 6.64192 8.23227 6.93989 7.93563Z" stroke="black" stroke-linejoin="round"/>
</svg>
