<svg width="16" height="16" viewBox="0 0 16 16" fill="none" xmlns="http://www.w3.org/2000/svg">
<path d="M5.625 11.1667V12.3333M10.875 11.1667V12.3333M4.05 6.409C3.525 6.42067 3 6.65808 3 7.08333V9.41667C3 10.3832 3.70525 11.1667 4.575 11.1667H11.925C12.7947 11.1667 13.5 10.3832 13.5 9.41667V7.08333C13.5 6.60967 12.975 6.39733 12.45 6.409M4.05 6.409C4.575 6.39733 5.1 6.60967 5.1 7.08333C5.1 7.87842 5.23125 8.83333 6.26667 8.83333H10.2333C11.2687 8.83333 11.4 7.87842 11.4 7.08333C11.4 6.6575 11.925 6.42125 12.45 6.409M4.05 6.409V4.75C4.05 3.78342 4.75525 3 5.625 3H10.875C11.7447 3 12.45 3.78342 12.45 4.75V6.409" stroke="black" stroke-linecap="round" stroke-linejoin="round"/>
</svg>
