<svg width="16" height="16" viewBox="0 0 16 16" fill="none" xmlns="http://www.w3.org/2000/svg">
<path d="M12.3059 13.0402L13.9765 7.04021C14.0027 6.94622 14.0071 6.84736 13.9892 6.75138C13.9714 6.6554 13.9319 6.56493 13.8738 6.48707C13.8157 6.40921 13.7406 6.3461 13.6544 6.30268C13.5682 6.25926 13.4733 6.23672 13.377 6.23684H9.80551C9.7543 6.23684 9.70376 6.22512 9.65765 6.20254C9.61153 6.17996 9.57102 6.14712 9.53915 6.10644C9.50727 6.06577 9.48485 6.01833 9.47355 5.96764C9.46224 5.91695 9.46235 5.86432 9.47386 5.81368L9.62942 5.13032C9.77191 4.50347 9.81764 3.85768 9.76506 3.21663L9.73644 2.86832C9.70578 2.49464 9.54561 2.14409 9.2844 1.87895C9.04538 1.63648 8.72135 1.50019 8.38343 1.5H8.30876C8.10436 1.5 7.91614 1.61242 7.81721 1.79368L6.98997 3.30474C6.61915 3.98245 6.06633 4.53932 5.39585 4.91053L3.32418 6.05684C3.22596 6.11124 3.14401 6.19152 3.08696 6.28922C3.02991 6.38692 2.99987 6.49843 3 6.612V12.8684C3 13.0359 3.06556 13.1966 3.18224 13.315C3.29893 13.4335 3.4572 13.5 3.62222 13.5H11.707C11.8425 13.5 11.9743 13.455 12.0823 13.372C12.1903 13.2891 12.269 13.1725 12.3059 13.0402Z" stroke="#222222" stroke-linecap="round" stroke-linejoin="round"/>
</svg>
