<svg width="24" height="24" viewBox="0 0 24 24" fill="none" xmlns="http://www.w3.org/2000/svg">
<path d="M16.9549 18.3838L18.9216 11.4253C18.9524 11.3163 18.9575 11.2016 18.9365 11.0903C18.9155 10.979 18.869 10.874 18.8006 10.7838C18.7322 10.6935 18.6438 10.6203 18.5423 10.5699C18.4409 10.5195 18.3291 10.4934 18.2158 10.4935H14.0114C13.9512 10.4936 13.8917 10.48 13.8374 10.4538C13.7831 10.4276 13.7354 10.3895 13.6979 10.3423C13.6603 10.2952 13.634 10.2401 13.6206 10.1813C13.6073 10.1226 13.6075 10.0615 13.621 10.0028L13.8041 9.21026C13.9719 8.48328 14.0257 7.73432 13.9638 6.99086L13.9301 6.5869C13.894 6.15353 13.7055 5.74698 13.398 5.43948C13.1166 5.15828 12.7352 5.00022 12.3374 5H12.2495C12.0088 5 11.7873 5.13038 11.6708 5.3406L10.697 7.09304C10.2605 7.87902 9.60967 8.52484 8.82039 8.95536L6.38162 10.2848C6.266 10.3479 6.16953 10.441 6.10237 10.5543C6.03521 10.6676 5.99984 10.7969 6 10.9286V18.1845C6 18.3788 6.07717 18.5651 6.21454 18.7025C6.3519 18.8398 6.53821 18.917 6.73247 18.917H16.2499C16.4094 18.9169 16.5645 18.8648 16.6917 18.7686C16.8188 18.6724 16.9115 18.5372 16.9549 18.3838Z" stroke="black" stroke-width="1.46495" stroke-linecap="round" stroke-linejoin="round"/>
</svg>
