<svg width="16" height="16" viewBox="0 0 16 16" fill="none" xmlns="http://www.w3.org/2000/svg">
<path fill-rule="evenodd" clip-rule="evenodd" d="M12.9957 5.86696C12.9278 4.82491 12.0598 4 11 4C10.5892 4 10.2102 4.12276 9.89378 4.3334C9.44952 4.62916 8.79292 5 8 5C7.20708 5 6.55048 4.62916 6.10622 4.3334C5.78983 4.12276 5.41077 4 5 4C3.94019 4 3.07224 4.82491 3.00432 5.86696C2.9954 6.00374 2.98145 6.19175 2.94174 6.39031L2.17412 10.2284C2.14125 10.3928 2.08966 10.5582 2.05778 10.6604C2.05224 10.6781 2.0473 10.694 2.04315 10.7076C2.01533 10.7989 2 10.8967 2 11C2 11.5523 2.44772 12 3 12C3.20057 12 3.38454 11.942 3.53967 11.8422C3.7232 11.7241 3.91666 11.5739 4.14656 11.3889C4.18246 11.36 4.21951 11.33 4.25756 11.2993C4.44943 11.1441 4.66647 10.9687 4.88616 10.8088C5.40299 10.4328 6.11841 10 7 10H9C9.88159 10 10.597 10.4328 11.1138 10.8088C11.3335 10.9687 11.5506 11.1441 11.7424 11.2993C11.7805 11.33 11.8175 11.36 11.8534 11.3889C12.0833 11.5739 12.2768 11.7241 12.4603 11.8422C12.6155 11.942 12.7994 12 13 12C13.5523 12 14 11.5523 14 11C14 10.8967 13.9847 10.7989 13.9568 10.7076C13.9527 10.694 13.9478 10.6781 13.9422 10.6604C13.9103 10.5582 13.8588 10.3928 13.8259 10.2284L13.0583 6.39031C13.0185 6.19175 13.0046 6.00374 12.9957 5.86696ZM13.9936 5.80192C13.8916 4.23741 12.5903 3 11 3C10.386 3 9.81506 3.18446 9.3396 3.501C8.93499 3.77037 8.48608 4 8 4C7.51392 4 7.06501 3.77037 6.6604 3.501C6.18494 3.18446 5.61401 3 5 3C3.4097 3 2.10841 4.23741 2.00644 5.80192C1.99787 5.93335 1.98699 6.06505 1.96116 6.19419L1.19354 10.0323C1.172 10.14 1.13947 10.245 1.10695 10.35C1.10014 10.372 1.09332 10.394 1.08661 10.416C1.03029 10.6008 1 10.7968 1 11C1 12.1046 1.89543 13 3 13C3.39815 13 3.76913 12.8837 4.08079 12.6831C4.35275 12.5081 4.62101 12.2913 4.89215 12.0722C5.54709 11.5429 6.21883 11 7 11H9C9.78117 11 10.4529 11.5429 11.1079 12.0722C11.379 12.2913 11.6473 12.5081 11.9192 12.6831C12.2309 12.8837 12.6018 13 13 13C14.1046 13 15 12.1046 15 11C15 10.7968 14.9697 10.6008 14.9134 10.416C14.9067 10.394 14.8999 10.372 14.8931 10.35C14.8605 10.245 14.828 10.14 14.8065 10.0323L14.0388 6.19419C14.013 6.06505 14.0021 5.93335 13.9936 5.80192Z" fill="black"/>
<path fill-rule="evenodd" clip-rule="evenodd" d="M7.5 7.25C7.5 8.2165 6.7165 9 5.75 9C4.7835 9 4 8.2165 4 7.25C4 6.2835 4.7835 5.5 5.75 5.5C6.7165 5.5 7.5 6.2835 7.5 7.25ZM6.5 7.25C6.5 7.66421 6.16421 8 5.75 8C5.33579 8 5 7.66421 5 7.25C5 6.83579 5.33579 6.5 5.75 6.5C6.16421 6.5 6.5 6.83579 6.5 7.25Z" fill="black"/>
<path d="M10.25 8.5V7.75H9.5C9.22386 7.75 9 7.52614 9 7.25C9 6.97386 9.22386 6.75 9.5 6.75H10.25V6C10.25 5.72386 10.4739 5.5 10.75 5.5C11.0261 5.5 11.25 5.72386 11.25 6V6.75H12C12.2761 6.75 12.5 6.97386 12.5 7.25C12.5 7.52614 12.2761 7.75 12 7.75H11.25V8.5C11.25 8.77614 11.0261 9 10.75 9C10.4739 9 10.25 8.77614 10.25 8.5Z" fill="black"/>
</svg>
