<svg width="20" height="20" viewBox="0 0 20 20" fill="none" xmlns="http://www.w3.org/2000/svg">
<path d="M14.9549 16.3838L16.9216 9.42526C16.9524 9.31625 16.9575 9.20159 16.9365 9.09028C16.9155 8.97897 16.869 8.87405 16.8006 8.78375C16.7322 8.69346 16.6438 8.62026 16.5423 8.5699C16.4409 8.51955 16.3291 8.49341 16.2158 8.49355H12.0114C11.9512 8.49355 11.8917 8.47995 11.8374 8.45377C11.7831 8.42759 11.7354 8.38949 11.6979 8.34232C11.6603 8.29515 11.634 8.24013 11.6206 8.18134C11.6073 8.12255 11.6075 8.06152 11.621 8.00279L11.8041 7.21026C11.9719 6.48328 12.0257 5.73432 11.9638 4.99086L11.9301 4.5869C11.894 4.15353 11.7055 3.74698 11.398 3.43948C11.1166 3.15828 10.7352 3.00022 10.3374 3H10.2495C10.0088 3 9.78727 3.13038 9.67081 3.3406L8.69699 5.09304C8.26046 5.87902 7.60967 6.52484 6.82039 6.95536L4.38162 8.28479C4.266 8.34789 4.16953 8.44099 4.10237 8.5543C4.03521 8.6676 3.99984 8.79692 4 8.92864V16.1845C4 16.3788 4.07717 16.5651 4.21454 16.7025C4.3519 16.8398 4.53821 16.917 4.73247 16.917H14.2499C14.4094 16.9169 14.5645 16.8648 14.6917 16.7686C14.8188 16.6724 14.9115 16.5372 14.9549 16.3838Z" stroke="#191919" stroke-width="1.46495" stroke-linecap="round" stroke-linejoin="round"/>
</svg>
