<svg width="16" height="16" viewBox="0 0 16 16" fill="none" xmlns="http://www.w3.org/2000/svg">
<path d="M13.9306 10.3448L10.0513 14.2241C9.62276 14.6526 8.92803 14.6526 8.49953 14.2241V14.2241C8.07103 13.7956 8.07103 13.1009 8.49953 12.6724L9.83386 11.3381" stroke="#3170EE" stroke-linejoin="round"/>
<path d="M3.05326 8.77787V8.77787C1.91902 7.64363 1.91902 5.80465 3.05326 4.67041L4.89524 2.82843C6.45734 1.26633 8.99 1.26633 10.5521 2.82843L13.1711 5.44743C14.7332 7.00953 14.7332 9.54219 13.1711 11.1043L11.9728 12.3026" stroke="#3170EE" stroke-linejoin="round"/>
<path d="M10.8755 10.2968L7.46532 13.707C7.03682 14.1355 6.34209 14.1355 5.91359 13.707V13.707C5.48509 13.2786 5.48509 12.5838 5.91359 12.1553L8.9252 9.14371" stroke="#3170EE" stroke-linejoin="round"/>
<path d="M7.72454 7.24134L3.84523 11.1207C3.41673 11.5492 3.41673 12.2439 3.84523 12.6724V12.6724C4.27373 13.1009 4.96846 13.1009 5.39695 12.6724L8.83917 9.23016L9.27627 8.79307" stroke="#3170EE" stroke-linejoin="round"/>
<path d="M13.418 5.68848V5.68848C12.2753 6.83113 10.4227 6.83114 9.28004 5.68848L7.34193 3.75037" stroke="#3170EE" stroke-linejoin="round"/>
<path d="M6.69134 5.17299L2.81203 9.0523C2.38353 9.48079 2.38353 10.1755 2.81203 10.604V10.604C3.24053 11.0325 3.93526 11.0325 4.36375 10.604L7.0816 7.88617" stroke="#3170EE" stroke-linejoin="round"/>
<path d="M4.4082 7.45654L6.55802 5.30672L7.8968 3.96824" stroke="#3170EE" stroke-linejoin="round"/>
</svg>
