<svg width="16" height="16" viewBox="0 0 16 16" fill="none" xmlns="http://www.w3.org/2000/svg">
<path fill-rule="evenodd" clip-rule="evenodd" d="M4.00011 13.2432H6.00011V10.7432C6.00011 9.91477 6.67168 9.2432 7.50011 9.2432H8.50011C9.32854 9.2432 10.0001 9.91477 10.0001 10.7432V13.2432H12.0001V6.55929L8.00011 2.57961L4.00011 6.55929V13.2432ZM9.40402 2.54072L8.37008 1.49997C8.1717 1.28175 7.82852 1.28175 7.63014 1.49997L6.59623 2.5407L2.1503 6.93927C1.95325 7.13421 1.9524 7.45225 2.1484 7.64825C2.34292 7.84277 2.65804 7.84362 2.8536 7.65014L3.00011 7.50519V13.7432C3.00011 14.0194 3.22397 14.2432 3.50011 14.2432H6.50011C6.77625 14.2432 7.00011 14.0194 7.00011 13.7432V10.7432C7.00011 10.4671 7.22397 10.2432 7.50011 10.2432H8.50011C8.77625 10.2432 9.00011 10.4671 9.00011 10.7432V13.7432C9.00011 14.0194 9.22397 14.2432 9.50011 14.2432H12.5001C12.7763 14.2432 13.0001 14.0194 13.0001 13.7432V7.50519L13.1466 7.65014C13.3422 7.84362 13.6573 7.84277 13.8518 7.64825C14.0478 7.45225 14.047 7.13421 13.8499 6.93927L9.40402 2.54072Z" fill="black"/>
</svg>
