<svg width="16" height="16" viewBox="0 0 16 16" fill="none" xmlns="http://www.w3.org/2000/svg">
<path d="M8.00033 10.625C10.2555 10.625 12.0837 8.79687 12.0837 6.54171C12.0837 4.28654 10.2555 2.45837 8.00033 2.45837C5.74516 2.45837 3.91699 4.28654 3.91699 6.54171C3.91699 8.79687 5.74516 10.625 8.00033 10.625Z" stroke="black" stroke-linecap="round" stroke-linejoin="round"/>
<path d="M8 8.29163C8.9665 8.29163 9.75 7.50812 9.75 6.54163C9.75 5.57513 8.9665 4.79163 8 4.79163C7.0335 4.79163 6.25 5.57513 6.25 6.54163C6.25 7.50812 7.0335 8.29163 8 8.29163Z" stroke="black" stroke-linecap="round" stroke-linejoin="round"/>
<path d="M5.95898 10.0416L4.20898 13.5416H11.7923L10.0423 10.0416" stroke="black" stroke-linecap="round" stroke-linejoin="round"/>
</svg>
