<svg width="14" height="14" viewBox="0 0 14 14" fill="none" xmlns="http://www.w3.org/2000/svg">
<path fill-rule="evenodd" clip-rule="evenodd" d="M1 3.25C1 2.83579 1.33579 2.5 1.75 2.5H11.75C12.1642 2.5 12.5 2.83579 12.5 3.25C12.5 3.66421 12.1642 4 11.75 4H1.75C1.33579 4 1 3.66421 1 3.25Z" fill="white"/>
<path fill-rule="evenodd" clip-rule="evenodd" d="M1 7.4502C1 7.03598 1.33579 6.7002 1.75 6.7002H11.75C12.1642 6.7002 12.5 7.03598 12.5 7.4502C12.5 7.86441 12.1642 8.2002 11.75 8.2002H1.75C1.33579 8.2002 1 7.86441 1 7.4502Z" fill="white"/>
<path fill-rule="evenodd" clip-rule="evenodd" d="M1 11.6504C1 11.2362 1.33579 10.9004 1.75 10.9004H11.75C12.1642 10.9004 12.5 11.2362 12.5 11.6504C12.5 12.0646 12.1642 12.4004 11.75 12.4004H1.75C1.33579 12.4004 1 12.0646 1 11.6504Z" fill="white"/>
</svg>
