<svg width="24" height="24" viewBox="0 0 24 24" fill="none" xmlns="http://www.w3.org/2000/svg">
<path fill-rule="evenodd" clip-rule="evenodd" d="M6 8.25C6 7.83579 6.33579 7.5 6.75 7.5H16.75C17.1642 7.5 17.5 7.83579 17.5 8.25C17.5 8.66421 17.1642 9 16.75 9H6.75C6.33579 9 6 8.66421 6 8.25Z" fill="white"/>
<path fill-rule="evenodd" clip-rule="evenodd" d="M6 12.4502C6 12.036 6.33579 11.7002 6.75 11.7002H16.75C17.1642 11.7002 17.5 12.036 17.5 12.4502C17.5 12.8644 17.1642 13.2002 16.75 13.2002H6.75C6.33579 13.2002 6 12.8644 6 12.4502Z" fill="white"/>
<path fill-rule="evenodd" clip-rule="evenodd" d="M6 16.6504C6 16.2362 6.33579 15.9004 6.75 15.9004H16.75C17.1642 15.9004 17.5 16.2362 17.5 16.6504C17.5 17.0646 17.1642 17.4004 16.75 17.4004H6.75C6.33579 17.4004 6 17.0646 6 16.6504Z" fill="white"/>
</svg>
