<svg width="24" height="24" viewBox="0 0 24 24" fill="none" xmlns="http://www.w3.org/2000/svg">
<path d="M19.6784 16.1421L14.3751 21.4454C13.7893 22.0312 12.8396 22.0312 12.2538 21.4454V21.4454C11.668 20.8597 11.668 19.9099 12.2538 19.3241L14.0779 17.5" stroke="black" stroke-width="1.5" stroke-linejoin="round"/>
<path d="M4.80835 14V14C3.25775 12.4494 3.25775 9.93539 4.80835 8.38479L8.3647 4.82843C9.9268 3.26634 12.4595 3.26634 14.0216 4.82843L19.6784 10.4853C21.2405 12.0474 21.2405 14.58 19.6784 16.1421L17.002 18.8186" stroke="black" stroke-width="1.5" stroke-linejoin="round"/>
<path d="M15.502 16.0764L10.84 20.7384C10.2542 21.3242 9.30442 21.3242 8.71864 20.7384V20.7384C8.13285 20.1526 8.13285 19.2029 8.71864 18.6171L12.8357 14.5" stroke="black" stroke-width="1.5" stroke-linejoin="round"/>
<path d="M11.1938 11.8997L5.89051 17.203C5.30473 17.7888 5.30473 18.7386 5.89051 19.3243V19.3243C6.4763 19.9101 7.42605 19.9101 8.01183 19.3243L12.7176 14.6186L13.3151 14.021" stroke="black" stroke-width="1.5" stroke-linejoin="round"/>
<path d="M18.9766 9.77625L18.2695 10.4834C17.0979 11.6549 15.1984 11.6549 14.0268 10.4834L10.6702 7.12671" stroke="black" stroke-width="1.5" stroke-linejoin="round"/>
<path d="M9.77975 9.0716L4.47645 14.3749C3.89066 14.9607 3.89066 15.9104 4.47645 16.4962V16.4962C5.06224 17.082 6.01198 17.082 6.59777 16.4962L10.3133 12.7807" stroke="black" stroke-width="1.5" stroke-linejoin="round"/>
<path d="M6.6582 12.1938L9.59716 9.25489L11.4274 7.42508" stroke="black" stroke-width="1.5" stroke-linejoin="round"/>
</svg>
