<svg width="20" height="20" viewBox="0 0 20 20" fill="none" xmlns="http://www.w3.org/2000/svg">
<path d="M15.9306 12.3448L12.0513 16.2241C11.6228 16.6526 10.928 16.6526 10.4995 16.2241V16.2241C10.071 15.7956 10.071 15.1009 10.4995 14.6724L11.8339 13.3381" stroke="#191919" stroke-linejoin="round"/>
<path d="M5.05326 10.7779V10.7779C3.91902 9.64363 3.91902 7.80465 5.05326 6.67041L6.89524 4.82843C8.45734 3.26633 10.99 3.26633 12.5521 4.82843L15.1711 7.44743C16.7332 9.00953 16.7332 11.5422 15.1711 13.1043L13.9728 14.3026" stroke="#191919" stroke-linejoin="round"/>
<path d="M12.8755 12.2968L9.46532 15.707C9.03682 16.1355 8.34209 16.1355 7.91359 15.707V15.707C7.48509 15.2786 7.48509 14.5838 7.91359 14.1553L10.9252 11.1437" stroke="#191919" stroke-linejoin="round"/>
<path d="M9.72454 9.24134L5.84523 13.1207C5.41673 13.5492 5.41673 14.2439 5.84523 14.6724V14.6724C6.27373 15.1009 6.96846 15.1009 7.39695 14.6724L10.8392 11.2302L11.2763 10.7931" stroke="#191919" stroke-linejoin="round"/>
<path d="M15.418 7.68848V7.68848C14.2753 8.83113 12.4227 8.83114 11.28 7.68848L9.34193 5.75037" stroke="#191919" stroke-linejoin="round"/>
<path d="M8.68939 7.17299L4.81008 11.0523C4.38158 11.4808 4.38158 12.1755 4.81008 12.604V12.604C5.23857 13.0325 5.9333 13.0325 6.3618 12.604L9.07965 9.88617" stroke="#191919" stroke-linejoin="round"/>
<path d="M6.40625 9.45654L8.55607 7.30672L9.89484 5.96824" stroke="#191919" stroke-linejoin="round"/>
</svg>
