<svg width="16" height="16" viewBox="0 0 16 16" fill="none" xmlns="http://www.w3.org/2000/svg">
<path fill-rule="evenodd" clip-rule="evenodd" d="M14 13C14 13.5523 13.5523 14 13 14H8C4.68629 14 2 11.3137 2 8C2 4.68629 4.68629 2 8 2C10.9775 2 13.4485 4.16887 13.9192 7.01295C13.9716 7.16567 14 7.32951 14 7.5L14 13ZM8 13C5.23858 13 3 10.7614 3 8C3 5.23858 5.23858 3 8 3C10.0512 3 11.814 4.2352 12.585 6.00237C12.5569 6.0008 12.5286 6 12.5 6H7.58557C5.94054 6 5.49508 8.26546 7.01762 8.88832L13 11.3357V13H8ZM12.9483 7.27822C12.9824 7.51389 13 7.75489 13 8V10.2552L7.39625 7.96277C6.88873 7.75515 7.03723 7 7.58557 7H12.5C12.6965 7 12.8666 7.11334 12.9483 7.27822Z" fill="black"/>
</svg>
