<svg width="24" height="24" viewBox="0 0 24 24" fill="none" xmlns="http://www.w3.org/2000/svg">
<path d="M5 6.5C5 5.67157 5.67157 5 6.5 5H9C9.27614 5 9.5 5.22386 9.5 5.5C9.5 5.77614 9.27614 6 9 6H6.5C6.22386 6 6 6.22386 6 6.5V9C6 9.27614 5.77614 9.5 5.5 9.5C5.22386 9.5 5 9.27614 5 9V6.5Z" fill="black"/>
<path fill-rule="evenodd" clip-rule="evenodd" d="M14.4252 14.6812C13.7524 15.1949 12.9118 15.5 12 15.5C9.79086 15.5 8 13.7091 8 11.5C8 9.29086 9.79086 7.5 12 7.5C14.2091 7.5 16 9.29086 16 11.5C16 12.4369 15.6779 13.2985 15.1384 13.9802L16.3542 15.196C16.5495 15.3913 16.5495 15.7079 16.3542 15.9031C16.159 16.0984 15.8424 16.0984 15.6471 15.9031L14.4252 14.6812ZM15 11.5C15 13.1569 13.6569 14.5 12 14.5C10.3431 14.5 9 13.1569 9 11.5C9 9.84315 10.3431 8.5 12 8.5C13.6569 8.5 15 9.84315 15 11.5Z" fill="black"/>
<path d="M6.5 19C5.67157 19 5 18.3284 5 17.5V15C5 14.7239 5.22386 14.5 5.5 14.5C5.77614 14.5 6 14.7239 6 15V17.5C6 17.7761 6.22386 18 6.5 18H9C9.27614 18 9.5 18.2239 9.5 18.5C9.5 18.7761 9.27614 19 9 19H6.5Z" fill="black"/>
<path d="M17.5 5C18.3284 5 19 5.67157 19 6.5V9C19 9.27614 18.7761 9.5 18.5 9.5C18.2239 9.5 18 9.27614 18 9V6.5C18 6.22386 17.7761 6 17.5 6L15 6C14.7239 6 14.5 5.77614 14.5 5.5C14.5 5.22386 14.7239 5 15 5H17.5Z" fill="black"/>
<path d="M19 17.5C19 18.3284 18.3284 19 17.5 19H15C14.7239 19 14.5 18.7761 14.5 18.5C14.5 18.2239 14.7239 18 15 18H17.5C17.7761 18 18 17.7761 18 17.5V15C18 14.7239 18.2239 14.5 18.5 14.5C18.7761 14.5 19 14.7239 19 15V17.5Z" fill="black"/>
</svg>
