<svg width="16" height="16" viewBox="0 0 16 16" fill="none" xmlns="http://www.w3.org/2000/svg">
<path fill-rule="evenodd" clip-rule="evenodd" d="M5.74982 2C5.60289 2.58771 5.07484 3 4.46904 3H3.61832C2.29957 3 1.34181 4.25395 1.68879 5.52623L3.59788 12.5262C3.83519 13.3964 4.62551 14 5.52741 14H10.4722C11.3741 14 12.1645 13.3964 12.4018 12.5263L14.3109 5.52625C14.6579 4.25397 13.7002 3 12.3814 3H11.5306C10.9248 3 10.3967 2.58771 10.2498 2C10.1029 1.41229 9.57484 1 8.96904 1H7.0306C6.4248 1 5.89675 1.41229 5.74982 2ZM8.96904 2H7.0306C6.88367 2 6.7556 2.1 6.71996 2.24254C6.55562 2.89988 6.11999 3.43236 5.5505 3.73266C6.09195 4.49672 6.98193 4.99639 7.9888 5.00003C7.99249 5.00001 7.99618 5 7.99988 5C8.00358 5 8.00727 5.00001 8.01096 5.00003C9.01782 4.99639 9.90778 4.49675 10.4492 3.73271C9.8797 3.43242 9.44402 2.89992 9.27968 2.24254C9.24404 2.1 9.11597 2 8.96904 2ZM7.99068 6.00004C7.99375 6.00005 7.99682 6.00005 7.99989 6.00005C8.00296 6.00005 8.00603 6.00005 8.0091 6.00004C8.55714 6.00499 8.99988 6.45079 8.99988 7C8.99988 7.30969 8.86282 7.72957 8.61151 8.06767C8.35277 8.41577 8.11576 8.5 7.99988 8.5C7.88399 8.5 7.64698 8.41577 7.38824 8.06767C7.13694 7.72957 6.99988 7.30969 6.99988 7C6.99988 6.45078 7.44263 6.00498 7.99068 6.00004ZM6.47923 5.70086C6.18036 6.05035 5.99988 6.5041 5.99988 7C5.99988 8.10457 6.89531 9.5 7.99988 9.5C9.10445 9.5 9.99988 8.10457 9.99988 7C9.99988 6.5041 9.8194 6.05036 9.52054 5.70087C10.3414 5.36322 11.0252 4.76042 11.4653 3.99909C11.487 3.9997 11.5088 4 11.5306 4H12.3814C13.0408 4 13.5197 4.62699 13.3462 5.26313L11.437 12.2631C11.3183 12.6982 10.9232 13 10.4722 13H5.52741C5.07646 13 4.6813 12.6982 4.56265 12.2631L2.65356 5.26312C2.48006 4.62698 2.95895 4 3.61832 4H4.46904C4.49091 4 4.51272 3.99969 4.53446 3.99909C4.97458 4.76041 5.65838 5.36321 6.47923 5.70086Z" fill="black"/>
</svg>
