<svg width="24" height="24" viewBox="0 0 24 24" fill="none" xmlns="http://www.w3.org/2000/svg">
<path fill-rule="evenodd" clip-rule="evenodd" d="M14.5 3.3H8.5C7.83726 3.3 7.3 3.83726 7.3 4.5C7.3 5.16274 7.83726 5.7 8.5 5.7H14.5C15.1627 5.7 15.7 5.16274 15.7 4.5C15.7 3.83726 15.1627 3.3 14.5 3.3ZM8.5 2C7.11929 2 6 3.11929 6 4.5C6 5.88071 7.11929 7 8.5 7H14.5C15.8807 7 17 5.88071 17 4.5C17 3.11929 15.8807 2 14.5 2H8.5Z" fill="black"/>
<path fill-rule="evenodd" clip-rule="evenodd" d="M16.2 5.3H18C18.3866 5.3 18.7 5.6134 18.7 6V20C18.7 20.3866 18.3866 20.7 18 20.7H5C4.6134 20.7 4.3 20.3866 4.3 20V6C4.3 5.6134 4.6134 5.3 5 5.3H6.86L6.6 4H5C3.89543 4 3 4.89543 3 6V20C3 21.1046 3.89543 22 5 22H18C19.1046 22 20 21.1046 20 20V6C20 4.89543 19.1046 4 18 4H16.5V5L16.2 5.3Z" fill="black"/>
<path d="M7 10H16" stroke="black" stroke-width="1.3"/>
<path d="M7 13H16" stroke="black" stroke-width="1.3"/>
<path d="M7 16H13" stroke="black" stroke-width="1.3"/>
</svg>
