<svg width="24" height="24" viewBox="0 0 24 24" fill="none" xmlns="http://www.w3.org/2000/svg">
<path d="M9 12.5C9 13.0523 8.55228 13.5 8 13.5C7.44772 13.5 7 13.0523 7 12.5C7 11.9477 7.44772 11.5 8 11.5C8.55228 11.5 9 11.9477 9 12.5Z" fill="black"/>
<path d="M13.3008 12.5C13.3008 13.0523 12.8531 13.5 12.3008 13.5C11.7485 13.5 11.3008 13.0523 11.3008 12.5C11.3008 11.9477 11.7485 11.5 12.3008 11.5C12.8531 11.5 13.3008 11.9477 13.3008 12.5Z" fill="black"/>
<path d="M17.6016 12.5C17.6016 13.0523 17.1538 13.5 16.6016 13.5C16.0493 13.5 15.6016 13.0523 15.6016 12.5C15.6016 11.9477 16.0493 11.5 16.6016 11.5C17.1538 11.5 17.6016 11.9477 17.6016 12.5Z" fill="black"/>
</svg>
