<svg width="20" height="20" viewBox="0 0 20 20" fill="none" xmlns="http://www.w3.org/2000/svg">
<path d="M7 10.5C7 11.0523 6.55228 11.5 6 11.5C5.44772 11.5 5 11.0523 5 10.5C5 9.94772 5.44772 9.5 6 9.5C6.55228 9.5 7 9.94772 7 10.5Z" fill="black"/>
<path d="M11.3008 10.5C11.3008 11.0523 10.8531 11.5 10.3008 11.5C9.7485 11.5 9.30078 11.0523 9.30078 10.5C9.30078 9.94772 9.7485 9.5 10.3008 9.5C10.8531 9.5 11.3008 9.94772 11.3008 10.5Z" fill="black"/>
<path d="M15.6016 10.5C15.6016 11.0523 15.1538 11.5 14.6016 11.5C14.0493 11.5 13.6016 11.0523 13.6016 10.5C13.6016 9.94772 14.0493 9.5 14.6016 9.5C15.1538 9.5 15.6016 9.94772 15.6016 10.5Z" fill="black"/>
</svg>
