<svg width="12" height="12" viewBox="0 0 12 12" fill="none" xmlns="http://www.w3.org/2000/svg">
<path fill-rule="evenodd" clip-rule="evenodd" d="M5.1875 7.63634C5.42912 7.63634 5.625 7.82505 5.625 8.05783L5.625 8.57786L7.14991 7.69641C7.2179 7.65711 7.29571 7.63634 7.375 7.63634H9.5625V3.42149L3.4375 3.42149V7.63634H5.1875ZM3 3.42149C3 3.18871 3.19588 3 3.4375 3H9.5625C9.80412 3 10 3.18871 10 3.42149V7.63634C10 7.86912 9.80412 8.05783 9.5625 8.05783H7.375L5.85009 8.93928C5.55849 9.10784 5.1875 8.90548 5.1875 8.57786V8.05783H3.4375C3.19588 8.05783 3 7.86912 3 7.63634V3.42149Z" fill="black"/>
<path d="M6.9375 5.73966C6.9375 5.85605 6.83956 5.9504 6.71875 5.9504C6.59794 5.9504 6.5 5.85605 6.5 5.73966C6.5 5.62327 6.59794 5.52891 6.71875 5.52891C6.83956 5.52891 6.9375 5.62327 6.9375 5.73966Z" fill="black"/>
<path d="M8.03125 5.73966C8.03125 5.85605 7.93331 5.9504 7.8125 5.9504C7.69169 5.9504 7.59375 5.85605 7.59375 5.73966C7.59375 5.62327 7.69169 5.52891 7.8125 5.52891C7.93331 5.52891 8.03125 5.62327 8.03125 5.73966Z" fill="black"/>
<path fill-rule="evenodd" clip-rule="evenodd" d="M5.625 5.52891H4.75V5.9504H5.625C5.7458 5.9504 5.84375 5.85604 5.84375 5.73966C5.84375 5.62328 5.7458 5.52891 5.625 5.52891Z" fill="black"/>
</svg>
