<svg width="24" height="24" viewBox="0 0 24 24" fill="none" xmlns="http://www.w3.org/2000/svg">
  <path fill-rule="evenodd" clip-rule="evenodd" d="M9 16C9.55228 16 10 16.4477 10 17L10 18.2338L13.4855 16.1425C13.6409 16.0493 13.8188 16 14 16H19V6L5 6V16H9ZM4 6C4 5.44772 4.44772 5 5 5H19C19.5523 5 20 5.44772 20 6V16C20 16.5523 19.5523 17 19 17H14L10.5145 19.0913C9.84797 19.4912 9 19.0111 9 18.2338V17H5C4.44772 17 4 16.5523 4 16V6Z" />
  <path d="M13 11.5C13 11.7761 12.7761 12 12.5 12C12.2239 12 12 11.7761 12 11.5C12 11.2239 12.2239 11 12.5 11C12.7761 11 13 11.2239 13 11.5Z" />
  <path d="M15.5 11.5C15.5 11.7761 15.2761 12 15 12C14.7239 12 14.5 11.7761 14.5 11.5C14.5 11.2239 14.7239 11 15 11C15.2761 11 15.5 11.2239 15.5 11.5Z" />
  <path fill-rule="evenodd" clip-rule="evenodd" d="M10 11H8V12H10C10.2761 12 10.5 11.7761 10.5 11.5C10.5 11.2239 10.2761 11 10 11Z" />
</svg>