<svg width="24" height="24" viewBox="0 0 24 24" fill="none" xmlns="http://www.w3.org/2000/svg">
<path d="M19.25 10C19.25 12.2436 17.9913 14.6262 16.4012 16.7154C14.843 18.7627 13.0553 20.4139 12.1363 21.2093C12.0958 21.2356 12.0485 21.2498 12 21.2498C11.9515 21.2498 11.9042 21.2356 11.8637 21.2093C10.9447 20.4139 9.15703 18.7627 7.5988 16.7154C6.00869 14.6262 4.75 12.2436 4.75 10C4.75 8.07718 5.51384 6.23311 6.87348 4.87348C8.23311 3.51384 10.0772 2.75 12 2.75C13.9228 2.75 15.7669 3.51384 17.1265 4.87348C18.4862 6.23311 19.25 8.07718 19.25 10Z" stroke="black" stroke-width="1.5" stroke-linecap="round" stroke-linejoin="round"/>
<path d="M14.25 10C14.25 11.2426 13.2426 12.25 12 12.25C10.7574 12.25 9.75 11.2426 9.75 10C9.75 8.75736 10.7574 7.75 12 7.75C13.2426 7.75 14.25 8.75736 14.25 10Z" stroke="black" stroke-width="1.5" stroke-linecap="round" stroke-linejoin="round"/>
</svg>
