<svg width="24" height="24" viewBox="0 0 24 24" fill="none" xmlns="http://www.w3.org/2000/svg">
<path fill-rule="evenodd" clip-rule="evenodd" d="M7.32173 3.41976C6.01139 4.283 5.10071 5.63936 4.60132 7.1269C3.94726 9.07518 3.82677 11.0003 4.23986 13.2642C4.78682 16.2617 6.73995 18.7645 9.04003 20.763L11.501 22.9013C11.7877 23.1503 12.2139 23.1503 12.5006 22.9013L14.9616 20.763C17.2617 18.7645 19.2148 16.2617 19.7618 13.2642C20.1749 11.0003 20.0544 9.07518 19.4003 7.1269C18.9009 5.63936 17.9902 4.283 16.6799 3.41976C13.8064 1.52675 10.1952 1.52675 7.32173 3.41976ZM11.9893 12.6689C13.6727 12.6689 15.0373 11.3043 15.0373 9.62093C15.0373 7.9376 13.6727 6.573 11.9893 6.573C10.306 6.573 8.94141 7.9376 8.94141 9.62093C8.94141 11.3043 10.306 12.6689 11.9893 12.6689Z" fill="black"/>
</svg>
