<svg width="12" height="12" viewBox="0 0 12 12" fill="none" xmlns="http://www.w3.org/2000/svg">
<path fill-rule="evenodd" clip-rule="evenodd" d="M4.5969 1.24258C3.20133 1.73814 2.26624 3.1161 2.05602 4.58205C2.02625 4.78965 2.00826 4.9995 2.00205 5.2133C1.93062 7.67203 3.73976 9.70391 5.59655 11.3172C5.82795 11.5183 6.17205 11.5183 6.40345 11.3172C8.26024 9.70391 10.0694 7.67203 9.99795 5.2133C9.99174 4.9995 9.97375 4.78965 9.94398 4.58205C9.73376 3.1161 8.79867 1.73814 7.4031 1.24258C6.49226 0.919141 5.50774 0.919141 4.5969 1.24258ZM5.99426 6.33443C6.83592 6.33443 7.51822 5.65213 7.51822 4.81046C7.51822 3.9688 6.83592 3.2865 5.99426 3.2865C5.1526 3.2865 4.47029 3.9688 4.47029 4.81046C4.47029 5.65213 5.1526 6.33443 5.99426 6.33443Z" fill="#191919"/>
</svg>
