<svg width="20" height="20" viewBox="0 0 20 20" fill="none" xmlns="http://www.w3.org/2000/svg">
<path fill-rule="evenodd" clip-rule="evenodd" d="M7 10C7 10.5523 6.55228 11 6 11C5.44772 11 5 10.5523 5 10C5 9.44772 5.44772 9 6 9C6.55228 9 7 9.44772 7 10ZM10.6016 10C10.6016 10.5523 10.1538 11 9.60156 11C9.04928 11 8.60156 10.5523 8.60156 10C8.60156 9.44772 9.04928 9 9.60156 9C10.1538 9 10.6016 9.44772 10.6016 10ZM13.2031 11C13.7554 11 14.2031 10.5523 14.2031 10C14.2031 9.44772 13.7554 9 13.2031 9C12.6508 9 12.2031 9.44772 12.2031 10C12.2031 10.5523 12.6508 11 13.2031 11Z" fill="#191919"/>
</svg>
