<svg width="16" height="16" viewBox="0 0 16 16" fill="none" xmlns="http://www.w3.org/2000/svg">
<path d="M12.5 2.5H11.2069L10.3538 1.64625C10.3073 1.59983 10.2521 1.56303 10.1914 1.53793C10.1307 1.51284 10.0657 1.49995 10 1.5H6C5.93432 1.49995 5.86927 1.51284 5.80858 1.53793C5.74788 1.56303 5.69272 1.59983 5.64625 1.64625L4.79313 2.5H3.5C3.23478 2.5 2.98043 2.60536 2.79289 2.79289C2.60536 2.98043 2.5 3.23478 2.5 3.5V13C2.5 13.2652 2.60536 13.5196 2.79289 13.7071C2.98043 13.8946 3.23478 14 3.5 14H12.5C12.7652 14 13.0196 13.8946 13.2071 13.7071C13.3946 13.5196 13.5 13.2652 13.5 13V3.5C13.5 3.23478 13.3946 2.98043 13.2071 2.79289C13.0196 2.60536 12.7652 2.5 12.5 2.5ZM8 4.09875L6.9375 2.5H9.06875L8 4.09875ZM10.0775 2.78625L10.5 3.20688V6.5L8.66063 4.91L10.0775 2.78625ZM5.5 3.20688L5.9225 2.785L7.33938 4.91L5.5 6.5V3.20688ZM3.5 3.5H4.5V6.5C4.49883 6.6903 4.55249 6.8769 4.65457 7.0375C4.75665 7.19811 4.90283 7.32591 5.07562 7.40562C5.20852 7.46763 5.35335 7.49984 5.5 7.5C5.73328 7.49952 5.95895 7.417 6.1375 7.26687C6.14009 7.26515 6.14241 7.26304 6.14437 7.26062L7.5 6.0925V13H3.5V3.5ZM12.5 13H8.5V6.0925L9.85312 7.26125C9.85509 7.26366 9.85741 7.26577 9.86 7.2675C10.0393 7.41795 10.2659 7.50029 10.5 7.5C10.6476 7.49962 10.7934 7.46676 10.9269 7.40375C11.0989 7.3238 11.2444 7.19613 11.346 7.03593C11.4476 6.87572 11.501 6.6897 11.5 6.5V3.5H12.5V13Z" fill="black"/>
</svg>
