<svg width="18" height="18" viewBox="0 0 18 18" fill="none" xmlns="http://www.w3.org/2000/svg">
<path d="M12.5 8.00005C12.5 9.07973 11.8917 10.2434 11.1011 11.2821C10.337 12.2861 9.46016 13.0991 9 13.4984C8.53985 13.0991 7.66301 12.2861 6.89887 11.2821C6.10834 10.2434 5.5 9.07973 5.5 8.00005C5.5 7.07178 5.86875 6.18152 6.52513 5.52514C7.18151 4.86875 8.07174 4.5 9 4.5C9.92826 4.5 10.8185 4.86875 11.4749 5.52514C12.1312 6.18152 12.5 7.07178 12.5 8.00005Z" stroke="black" stroke-linecap="round" stroke-linejoin="round"/>
<path d="M10 8.00002C10 8.55232 9.55228 9.00004 9 9.00004C8.44772 9.00004 8 8.55232 8 8.00002C8 7.44772 8.44772 7 9 7C9.55228 7 10 7.44772 10 8.00002Z" stroke="black" stroke-linecap="round" stroke-linejoin="round"/>
</svg>
