<svg width="12" height="12" viewBox="0 0 12 12" fill="none" xmlns="http://www.w3.org/2000/svg">
<path fill-rule="evenodd" clip-rule="evenodd" d="M7.60058 2.51991H5.201C4.93595 2.51991 4.72108 2.73478 4.72108 2.99983C4.72108 3.26488 4.93595 3.47974 5.201 3.47974H7.60058C7.86563 3.47974 8.0805 3.26488 8.0805 2.99983C8.0805 2.73478 7.86563 2.51991 7.60058 2.51991ZM5.201 2C4.64881 2 4.20117 2.44764 4.20117 2.99983C4.20117 3.55202 4.64881 3.99965 5.201 3.99965H7.60058C8.15277 3.99965 8.60041 3.55202 8.60041 2.99983C8.60041 2.44764 8.15277 2 7.60058 2H5.201Z" fill="black"/>
<path fill-rule="evenodd" clip-rule="evenodd" d="M8.27919 3.32004H8.99994C9.15457 3.32004 9.27993 3.4454 9.27993 3.60004V9.19998C9.27993 9.35462 9.15457 9.47998 8.99994 9.47998H3.79999C3.64535 9.47998 3.51999 9.35462 3.51999 9.19998V3.60004C3.51999 3.4454 3.64535 3.32004 3.79999 3.32004H4.54447L4.44047 2.80005H3.79999C3.35817 2.80005 3 3.15822 3 3.60004V9.19998C3 9.6418 3.35817 9.99997 3.79999 9.99997H8.99994C9.44176 9.99997 9.79993 9.6418 9.79993 9.19998V3.60004C9.79993 3.15822 9.44176 2.80005 8.99994 2.80005H8.3997V3.19953L8.27919 3.32004Z" fill="black"/>
<path d="M4.59961 5.19995H8.19898" stroke="black" stroke-width="0.519994"/>
<path d="M4.59961 6.40002H8.19898" stroke="black" stroke-width="0.519994"/>
<path d="M4.59961 7.59985H6.99919" stroke="black" stroke-width="0.519994"/>
</svg>
