<svg width="16" height="16" viewBox="0 0 16 16" fill="none" xmlns="http://www.w3.org/2000/svg">
<line x1="3.97613" y1="12.3758" x2="12.3761" y2="3.97578" stroke="#222222" stroke-width="1.2"/>
<path d="M12.3762 8.77576L11.6732 9.4787C10.736 10.416 9.21637 10.416 8.27912 9.4787L7.57617 8.77576" stroke="#222222" stroke-width="1.2"/>
<path d="M6.07158 5.4708L5.36864 6.17374C4.43138 7.111 4.43138 8.6306 5.36864 9.56786L6.07422 10.2734" stroke="#222222" stroke-width="1.2"/>
<circle cx="3.2" cy="12.8" r="1.2" fill="#222222"/>
<circle cx="12.7996" cy="3.2" r="1.2" fill="#222222"/>
<circle cx="12.7996" cy="8.00005" r="1.2" fill="#222222"/>
<path d="M7.4 5.00005C7.4 5.66279 6.86274 6.20005 6.2 6.20005C5.53726 6.20005 5 5.66279 5 5.00005C5 4.33731 5.53726 3.80005 6.2 3.80005C6.86274 3.80005 7.4 4.33731 7.4 5.00005Z" fill="#222222"/>
</svg>
