<svg width="12" height="12" viewBox="0 0 12 12" fill="none" xmlns="http://www.w3.org/2000/svg">
<path fill-rule="evenodd" clip-rule="evenodd" d="M9 3.5H3C2.72386 3.5 2.5 3.72386 2.5 4V8C2.5 8.27614 2.72386 8.5 3 8.5H9C9.27614 8.5 9.5 8.27614 9.5 8V4C9.5 3.72386 9.27614 3.5 9 3.5ZM3 3C2.44772 3 2 3.44772 2 4V8C2 8.55228 2.44772 9 3 9H9C9.55228 9 10 8.55228 10 8V4C10 3.44772 9.55228 3 9 3H3Z" fill="black"/>
<path fill-rule="evenodd" clip-rule="evenodd" d="M10 5H2V4.5H10V5Z" fill="black"/>
<path fill-rule="evenodd" clip-rule="evenodd" d="M6 7H4V6.5L6 6.5V7Z" fill="black"/>
</svg>
