<svg width="16" height="16" viewBox="0 0 16 16" fill="none" xmlns="http://www.w3.org/2000/svg">
<path fill-rule="evenodd" clip-rule="evenodd" d="M12.5 3.55001V3.5C12.5 2.67157 11.8284 2 11 2H3.5C2.67157 2 2 2.67157 2 3.5V5C2 5.82843 2.67157 6.5 3.5 6.5H11C11.8284 6.5 12.5 5.82843 12.5 5V4.58535C13.0826 4.79127 13.5 5.34689 13.5 6C13.5 6.82843 12.8284 7.5 12 7.5H8.5C7.56808 7.5 6.78503 8.13739 6.56301 9H6.5C5.67157 9 5 9.67157 5 10.5V13.5C5 14.3284 5.67157 15 6.5 15H7.5C8.32843 15 9 14.3284 9 13.5V10.5C9 9.71556 8.39785 9.07176 7.63056 9.0056C7.80266 8.70362 8.12755 8.5 8.5 8.5H12C13.3807 8.5 14.5 7.38071 14.5 6C14.5 4.79052 13.6411 3.78164 12.5 3.55001ZM11 3H3.5C3.22386 3 3 3.22386 3 3.5V5C3 5.27614 3.22386 5.5 3.5 5.5H11C11.2761 5.5 11.5 5.27614 11.5 5V3.5C11.5 3.22386 11.2761 3 11 3ZM7.5 10H6.5C6.22386 10 6 10.2239 6 10.5V13.5C6 13.7761 6.22386 14 6.5 14H7.5C7.77614 14 8 13.7761 8 13.5V10.5C8 10.2239 7.77614 10 7.5 10Z" fill="black"/>
</svg>
