<svg width="16" height="16" viewBox="0 0 16 16" fill="none" xmlns="http://www.w3.org/2000/svg">
<path fill-rule="evenodd" clip-rule="evenodd" d="M11 2H5C4.44772 2 4 2.44772 4 3V13C4 13.5523 4.44772 14 5 14H11C11.5523 14 12 13.5523 12 13V3C12 2.44772 11.5523 2 11 2ZM5 1C3.89543 1 3 1.89543 3 3V13C3 14.1046 3.89543 15 5 15H11C12.1046 15 13 14.1046 13 13V3C13 1.89543 12.1046 1 11 1H5Z" fill="black"/>
<path fill-rule="evenodd" clip-rule="evenodd" d="M10 4H6V10H10V4ZM6 3C5.44772 3 5 3.44772 5 4V10C5 10.5523 5.44772 11 6 11H10C10.5523 11 11 10.5523 11 10V4C11 3.44772 10.5523 3 10 3H6Z" fill="black"/>
<path d="M8.5 12.5C8.5 12.7761 8.27614 13 8 13C7.72386 13 7.5 12.7761 7.5 12.5C7.5 12.2239 7.72386 12 8 12C8.27614 12 8.5 12.2239 8.5 12.5Z" fill="black"/>
</svg>
