<svg width="24" height="24" viewBox="0 0 24 24" fill="none" xmlns="http://www.w3.org/2000/svg">
<path fill-rule="evenodd" clip-rule="evenodd" d="M8 3.5H4C3.72386 3.5 3.5 3.72386 3.5 4V8C3.5 8.27614 3.72386 8.5 4 8.5H8C8.27614 8.5 8.5 8.27614 8.5 8V4C8.5 3.72386 8.27614 3.5 8 3.5ZM4 2.5C3.17157 2.5 2.5 3.17157 2.5 4V8C2.5 8.82843 3.17157 9.5 4 9.5H8C8.82843 9.5 9.5 8.82843 9.5 8V4C9.5 3.17157 8.82843 2.5 8 2.5H4Z" fill="white"/>
<path fill-rule="evenodd" clip-rule="evenodd" d="M20 3.5H16C15.7239 3.5 15.5 3.72386 15.5 4V8C15.5 8.27614 15.7239 8.5 16 8.5H20C20.2761 8.5 20.5 8.27614 20.5 8V4C20.5 3.72386 20.2761 3.5 20 3.5ZM16 2.5C15.1716 2.5 14.5 3.17157 14.5 4V8C14.5 8.82843 15.1716 9.5 16 9.5H20C20.8284 9.5 21.5 8.82843 21.5 8V4C21.5 3.17157 20.8284 2.5 20 2.5H16Z" fill="white"/>
<path fill-rule="evenodd" clip-rule="evenodd" d="M20 15.5H16C15.7239 15.5 15.5 15.7239 15.5 16V20C15.5 20.2761 15.7239 20.5 16 20.5H20C20.2761 20.5 20.5 20.2761 20.5 20V16C20.5 15.7239 20.2761 15.5 20 15.5ZM16 14.5C15.1716 14.5 14.5 15.1716 14.5 16V20C14.5 20.8284 15.1716 21.5 16 21.5H20C20.8284 21.5 21.5 20.8284 21.5 20V16C21.5 15.1716 20.8284 14.5 20 14.5H16Z" fill="white"/>
<path fill-rule="evenodd" clip-rule="evenodd" d="M8 15.5H4C3.72386 15.5 3.5 15.7239 3.5 16V20C3.5 20.2761 3.72386 20.5 4 20.5H8C8.27614 20.5 8.5 20.2761 8.5 20V16C8.5 15.7239 8.27614 15.5 8 15.5ZM4 14.5C3.17157 14.5 2.5 15.1716 2.5 16V20C2.5 20.8284 3.17157 21.5 4 21.5H8C8.82843 21.5 9.5 20.8284 9.5 20V16C9.5 15.1716 8.82843 14.5 8 14.5H4Z" fill="white"/>
<path fill-rule="evenodd" clip-rule="evenodd" d="M12 2C12.2761 2 12.5 2.22386 12.5 2.5V10.5C12.5 11.3284 11.8284 12 11 12H2.5C2.22386 12 2 11.7761 2 11.5C2 11.2239 2.22386 11 2.5 11H11C11.2761 11 11.5 10.7761 11.5 10.5V2.5C11.5 2.22386 11.7239 2 12 2Z" fill="white"/>
<path fill-rule="evenodd" clip-rule="evenodd" d="M12 14C12.2761 14 12.5 14.2239 12.5 14.5V21C12.5 21.2761 12.2761 21.5 12 21.5C11.7239 21.5 11.5 21.2761 11.5 21V14.5C11.5 14.2239 11.7239 14 12 14Z" fill="white"/>
<path fill-rule="evenodd" clip-rule="evenodd" d="M14 11.5C14 11.2239 14.2239 11 14.5 11H21.5C21.7761 11 22 11.2239 22 11.5C22 11.7761 21.7761 12 21.5 12H14.5C14.2239 12 14 11.7761 14 11.5Z" fill="white"/>
</svg>
