<svg width="16" height="16" viewBox="0 0 16 16" fill="none" xmlns="http://www.w3.org/2000/svg">
<path fill-rule="evenodd" clip-rule="evenodd" d="M5.33398 2.33325H2.66732C2.48322 2.33325 2.33398 2.48249 2.33398 2.66659V5.33325C2.33398 5.51735 2.48322 5.66659 2.66732 5.66659H5.33398C5.51808 5.66659 5.66732 5.51735 5.66732 5.33325V2.66659C5.66732 2.48249 5.51808 2.33325 5.33398 2.33325ZM2.66732 1.66659C2.11503 1.66659 1.66732 2.1143 1.66732 2.66659V5.33325C1.66732 5.88554 2.11503 6.33325 2.66732 6.33325H5.33398C5.88627 6.33325 6.33398 5.88554 6.33398 5.33325V2.66659C6.33398 2.1143 5.88627 1.66659 5.33398 1.66659H2.66732Z" fill="white"/>
<path fill-rule="evenodd" clip-rule="evenodd" d="M13.334 2.33325H10.6673C10.4832 2.33325 10.334 2.48249 10.334 2.66659V5.33325C10.334 5.51735 10.4832 5.66659 10.6673 5.66659H13.334C13.5181 5.66659 13.6673 5.51735 13.6673 5.33325V2.66659C13.6673 2.48249 13.5181 2.33325 13.334 2.33325ZM10.6673 1.66659C10.115 1.66659 9.66732 2.1143 9.66732 2.66659V5.33325C9.66732 5.88554 10.115 6.33325 10.6673 6.33325H13.334C13.8863 6.33325 14.334 5.88554 14.334 5.33325V2.66659C14.334 2.1143 13.8863 1.66659 13.334 1.66659H10.6673Z" fill="white"/>
<path fill-rule="evenodd" clip-rule="evenodd" d="M13.334 10.3333H10.6673C10.4832 10.3333 10.334 10.4825 10.334 10.6666V13.3333C10.334 13.5173 10.4832 13.6666 10.6673 13.6666H13.334C13.5181 13.6666 13.6673 13.5173 13.6673 13.3333V10.6666C13.6673 10.4825 13.5181 10.3333 13.334 10.3333ZM10.6673 9.66659C10.115 9.66659 9.66732 10.1143 9.66732 10.6666V13.3333C9.66732 13.8855 10.115 14.3333 10.6673 14.3333H13.334C13.8863 14.3333 14.334 13.8855 14.334 13.3333V10.6666C14.334 10.1143 13.8863 9.66659 13.334 9.66659H10.6673Z" fill="white"/>
<path fill-rule="evenodd" clip-rule="evenodd" d="M5.33398 10.3333H2.66732C2.48322 10.3333 2.33398 10.4825 2.33398 10.6666V13.3333C2.33398 13.5173 2.48322 13.6666 2.66732 13.6666H5.33398C5.51808 13.6666 5.66732 13.5173 5.66732 13.3333V10.6666C5.66732 10.4825 5.51808 10.3333 5.33398 10.3333ZM2.66732 9.66659C2.11503 9.66659 1.66732 10.1143 1.66732 10.6666V13.3333C1.66732 13.8855 2.11503 14.3333 2.66732 14.3333H5.33398C5.88627 14.3333 6.33398 13.8855 6.33398 13.3333V10.6666C6.33398 10.1143 5.88627 9.66659 5.33398 9.66659H2.66732Z" fill="white"/>
<path fill-rule="evenodd" clip-rule="evenodd" d="M8.00065 1.33325C8.18475 1.33325 8.33398 1.48249 8.33398 1.66659V6.99992C8.33398 7.5522 7.88627 7.99992 7.33398 7.99992H1.66732C1.48322 7.99992 1.33398 7.85068 1.33398 7.66659C1.33398 7.48249 1.48322 7.33325 1.66732 7.33325H7.33398C7.51808 7.33325 7.66732 7.18401 7.66732 6.99992V1.66659C7.66732 1.48249 7.81656 1.33325 8.00065 1.33325Z" fill="white"/>
<path fill-rule="evenodd" clip-rule="evenodd" d="M8.00065 9.33325C8.18475 9.33325 8.33398 9.48249 8.33398 9.66659V13.9999C8.33398 14.184 8.18475 14.3333 8.00065 14.3333C7.81656 14.3333 7.66732 14.184 7.66732 13.9999V9.66659C7.66732 9.48249 7.81656 9.33325 8.00065 9.33325Z" fill="white"/>
<path fill-rule="evenodd" clip-rule="evenodd" d="M9.33398 7.66659C9.33398 7.48249 9.48322 7.33325 9.66732 7.33325H14.334C14.5181 7.33325 14.6673 7.48249 14.6673 7.66659C14.6673 7.85068 14.5181 7.99992 14.334 7.99992H9.66732C9.48322 7.99992 9.33398 7.85068 9.33398 7.66659Z" fill="white"/>
</svg>
