<svg width="16" height="16" viewBox="0 0 16 16" fill="none" xmlns="http://www.w3.org/2000/svg">
<path d="M5.5 4C5.77614 4 6 4.22386 6 4.5V5.5C6 5.77614 5.77614 6 5.5 6C5.22386 6 5 5.77614 5 5.5V4.5C5 4.22386 5.22386 4 5.5 4Z" fill="black"/>
<path d="M6 10C6 9.72386 5.77614 9.5 5.5 9.5C5.22386 9.5 5 9.72386 5 10V11C5 11.2761 5.22386 11.5 5.5 11.5C5.77614 11.5 6 11.2761 6 11V10Z" fill="black"/>
<path fill-rule="evenodd" clip-rule="evenodd" d="M3 4C3 2.89543 3.89543 2 5 2H11C12.1046 2 13 2.89543 13 4V12C13 13.1046 12.1046 14 11 14C11 14.2761 10.7761 14.5 10.5 14.5C10.2239 14.5 10 14.2761 10 14H6C6 14.2761 5.77614 14.5 5.5 14.5C5.22386 14.5 5 14.2761 5 14C3.89543 14 3 13.1046 3 12V4ZM5 3H11C11.5523 3 12 3.44772 12 4V7H4V4C4 3.44772 4.44772 3 5 3ZM4 8V12C4 12.5523 4.44772 13 5 13H11C11.5523 13 12 12.5523 12 12V8H4Z" fill="black"/>
</svg>
