<svg width="24" height="24" viewBox="0 0 24 24" fill="none" xmlns="http://www.w3.org/2000/svg">
<path fill-rule="evenodd" clip-rule="evenodd" d="M15.4371 16.4143C14.2294 17.4053 12.6841 18 11 18C7.13401 18 4 14.866 4 11C4 7.13401 7.13401 4 11 4C14.866 4 18 7.13401 18 11C18 12.6529 17.4271 14.1721 16.469 15.3696C16.5129 15.398 16.5544 15.4314 16.5928 15.4698L19.0677 17.9447C19.3606 18.2375 19.3606 18.7124 19.0677 19.0053C18.7748 19.2982 18.2999 19.2982 18.007 19.0053L15.5322 16.5304C15.496 16.4943 15.4643 16.4554 15.4371 16.4143ZM16.5 11C16.5 14.0376 14.0376 16.5 11 16.5C7.96243 16.5 5.5 14.0376 5.5 11C5.5 7.96243 7.96243 5.5 11 5.5C14.0376 5.5 16.5 7.96243 16.5 11Z" fill="white"/>
</svg>
