<svg width="16" height="16" viewBox="0 0 16 16" fill="none" xmlns="http://www.w3.org/2000/svg">
<path d="M3.29926 6.83435C3.38367 6.0747 4.02576 5.5 4.79009 5.5H11.2099C11.9742 5.5 12.6163 6.0747 12.7007 6.83435L13.2563 11.8344C13.355 12.7229 12.6595 13.5 11.7655 13.5H4.23453C3.34051 13.5 2.64498 12.7229 2.7437 11.8344L3.29926 6.83435Z" stroke="#222222"/>
<mask id="path-2-inside-1_9072_10324" fill="white">
<path fill-rule="evenodd" clip-rule="evenodd" d="M10 4C10 2.89543 9.10457 2 8 2C6.89543 2 6 2.89543 6 4V6H8H10V4Z"/>
</mask>
<path d="M6 6H5V7H6V6ZM10 6V7H11V6H10ZM8 3C8.55228 3 9 3.44772 9 4H11C11 2.34315 9.65685 1 8 1V3ZM7 4C7 3.44772 7.44772 3 8 3V1C6.34315 1 5 2.34315 5 4H7ZM7 6V4H5V6H7ZM8 5H6V7H8V5ZM10 5H8V7H10V5ZM9 4V6H11V4H9Z" fill="#222222" mask="url(#path-2-inside-1_9072_10324)"/>
</svg>
