<svg width="16" height="16" viewBox="0 0 16 16" fill="none" xmlns="http://www.w3.org/2000/svg">
<path fill-rule="evenodd" clip-rule="evenodd" d="M4.5 6C5.63699 6 6.62472 5.36711 7.1327 4.43915C7.22805 4.26496 7.33161 4.13365 7.42111 4.05689C7.46755 4.01706 7.49528 4.00384 7.50614 4H7.71613L8.31068 4.98305C8.30466 4.98851 8.29874 4.99415 8.29293 4.99996L7.14645 6.14645C6.95118 6.34171 6.95118 6.65829 7.14645 6.85355C7.34171 7.04882 7.65829 7.04882 7.85355 6.85355L8.84334 5.86377L9.30797 6.63201C9.30288 6.6367 9.29787 6.64151 9.29293 6.64645L8.14645 7.79293C7.95118 7.98819 7.95118 8.30478 8.14645 8.50004C8.34171 8.6953 8.65829 8.6953 8.85355 8.50004L9.84072 7.51287L10.4925 8.59058C10.8548 9.18957 11.5039 9.55556 12.2039 9.55556H14V10H2V4.65844C2.53714 5.46684 3.45561 6 4.5 6ZM2 11V12H14V11H2ZM7.51145 3.99865C7.51144 3.99879 7.51006 3.99924 7.50737 3.99958C7.51012 3.99868 7.51147 3.99851 7.51145 3.99865ZM4.5 5C5.25709 5 5.91593 4.57933 6.25553 3.95897C6.52072 3.47452 6.94772 3 7.5 3H7.71613C8.06614 3 8.39067 3.18299 8.57181 3.48249L11.3482 8.07307C11.5293 8.37256 11.8539 8.55556 12.2039 8.55556H14C14.5523 8.55556 15 9.00327 15 9.55556V12C15 12.5523 14.5523 13 14 13H2C1.44772 13 1 12.5523 1 12V4C1 3.44772 1.44772 3 2 3C2.27614 3 2.49359 3.22733 2.56171 3.49494C2.78197 4.36012 3.56626 5 4.5 5Z" fill="black"/>
</svg>
