<svg width="16" height="16" viewBox="0 0 16 16" fill="none" xmlns="http://www.w3.org/2000/svg">
<path d="M4.69288 6.67013H6.67013V4.69288L4.36333 2.38609C5.10126 2.03366 5.9303 1.91867 6.7363 2.05695C7.54229 2.19524 8.28559 2.58 8.86384 3.15825C9.44209 3.7365 9.82685 4.4798 9.96513 5.28579C10.1034 6.09178 9.98843 6.92082 9.636 7.65875L13.5905 11.6132C13.8527 11.8754 14 12.2311 14 12.6019C14 12.9727 13.8527 13.3283 13.5905 13.5905C13.3283 13.8527 12.9727 14 12.6019 14C12.2311 14 11.8754 13.8527 11.6132 13.5905L7.65875 9.636C6.92082 9.98843 6.09178 10.1034 5.28579 9.96513C4.4798 9.82685 3.7365 9.44209 3.15825 8.86384C2.58 8.28559 2.19524 7.54229 2.05695 6.7363C1.91867 5.9303 2.03366 5.10126 2.38609 4.36333L4.69288 6.67013Z" stroke="black" stroke-linecap="round" stroke-linejoin="round"/>
</svg>
