<svg width="16" height="16" viewBox="0 0 16 16" fill="none" xmlns="http://www.w3.org/2000/svg">
<path fill-rule="evenodd" clip-rule="evenodd" d="M11.2972 4.66671C11.2972 6.50766 9.80482 8.00004 7.96387 8.00004C6.12292 8.00004 4.63053 6.50766 4.63053 4.66671C4.63053 2.82576 6.12292 1.33337 7.96387 1.33337C9.80482 1.33337 11.2972 2.82576 11.2972 4.66671ZM10.2972 4.66671C10.2972 5.95537 9.25253 7.00004 7.96387 7.00004C6.6752 7.00004 5.63053 5.95537 5.63053 4.66671C5.63053 3.37804 6.6752 2.33337 7.96387 2.33337C9.25253 2.33337 10.2972 3.37804 10.2972 4.66671Z" fill="white"/>
<path fill-rule="evenodd" clip-rule="evenodd" d="M7.96376 9.33337C5.24356 9.33337 2.999 11.3699 2.67153 14.0014C2.62606 14.3667 2.9289 14.6667 3.29709 14.6667H12.6304C12.9986 14.6667 13.3015 14.3667 13.256 14.0014C12.9285 11.3699 10.684 9.33337 7.96376 9.33337ZM7.96376 10.3334C10.0125 10.3334 11.7303 11.7559 12.1814 13.6667H3.74617C4.19723 11.7559 5.91503 10.3334 7.96376 10.3334Z" fill="white"/>
</svg>
