<svg width="24" height="24" viewBox="0 0 24 24" fill="none" xmlns="http://www.w3.org/2000/svg">
<path fill-rule="evenodd" clip-rule="evenodd" d="M16.9453 7C16.9453 9.76142 14.7067 12 11.9453 12C9.18389 12 6.94531 9.76142 6.94531 7C6.94531 4.23858 9.18389 2 11.9453 2C14.7067 2 16.9453 4.23858 16.9453 7ZM15.4453 7C15.4453 8.933 13.8783 10.5 11.9453 10.5C10.0123 10.5 8.44531 8.933 8.44531 7C8.44531 5.067 10.0123 3.5 11.9453 3.5C13.8783 3.5 15.4453 5.067 15.4453 7Z" fill="white"/>
<path fill-rule="evenodd" clip-rule="evenodd" d="M11.9452 14C7.86485 14 4.49802 17.0547 4.0068 21.002C3.9386 21.55 4.39287 22 4.94515 22H18.9452C19.4974 22 19.9517 21.55 19.8835 21.002C19.3923 17.0547 16.0255 14 11.9452 14ZM11.9452 15.5C15.0182 15.5 17.5949 17.6338 18.2715 20.5H5.61877C6.29536 17.6338 8.87206 15.5 11.9452 15.5Z" fill="white"/>
</svg>
