<svg width="16" height="16" viewBox="0 0 16 16" fill="none" xmlns="http://www.w3.org/2000/svg">
<path d="M10.0002 2.66671L8.00018 4.00004L6.00018 2.66671M10.0002 2.66671C10.3915 3.00604 11.2868 3.52871 11.3308 4.09737C11.3508 4.34337 11.2482 4.47804 11.0415 4.74737C10.5922 5.33471 10.0802 5.68004 10.0802 6.66671H5.92018C5.92018 5.68071 5.40818 5.33471 4.95885 4.74737C4.75285 4.47804 4.64951 4.34404 4.66884 4.09737C4.71351 3.52871 5.60951 3.00671 6.00018 2.66671M10.0002 2.66671V1.33337M6.00018 2.66671V1.33337M13.2422 11.872C12.7728 10.0787 11.5775 8.43337 10.7875 7.49137C10.2208 6.81537 9.80285 6.66671 8.91418 6.66671H7.08685C6.19751 6.66671 5.77951 6.81537 5.21284 7.49137C4.42284 8.43337 3.22751 10.078 2.75818 11.872C2.47151 12.9667 2.86085 13.566 3.92485 13.9534C4.88018 14.3014 6.29085 14.6667 8.00018 14.6667C9.70951 14.6667 11.1195 14.3014 12.0755 13.9534C13.1395 13.5667 13.5288 12.9667 13.2422 11.872Z" stroke="black" stroke-linecap="round" stroke-linejoin="round"/>
<path d="M9.33301 10C9.33301 10 10.6663 12 10.6663 14.3333M6.66634 10C6.66634 10 5.33301 12 5.33301 14.3333" stroke="black" stroke-linecap="round" stroke-linejoin="round"/>
</svg>
