<svg width="16" height="16" viewBox="0 0 16 16" fill="none" xmlns="http://www.w3.org/2000/svg">
<path fill-rule="evenodd" clip-rule="evenodd" d="M8.96877 2.26136C8.87193 2.0996 8.69329 2 8.5 2C8.30671 2 8.12807 2.0996 8.03123 2.26136L2.07289 12.2137C1.97588 12.3758 1.97569 12.5756 2.07241 12.7378C2.16912 12.9 2.34803 13 2.54167 13H14.4583C14.652 13 14.8309 12.9 14.9276 12.7378C15.0243 12.5756 15.0241 12.3758 14.9271 12.2137L8.96877 2.26136Z" fill="#FFC816"/>
<path fill-rule="evenodd" clip-rule="evenodd" d="M8.50061 5.23535C8.87016 5.23507 9.16997 5.52453 9.17027 5.88189L9.17294 9.11719C9.17324 9.47455 8.8739 9.76448 8.50436 9.76476C8.13482 9.76505 7.835 9.47558 7.83471 9.11822L7.83203 5.88293C7.83174 5.52557 8.13107 5.23564 8.50061 5.23535ZM8.50115 10.4118C8.87069 10.4118 9.17027 10.7015 9.17027 11.0589V11.3824C9.17027 11.7398 8.87069 12.0295 8.50115 12.0295C8.13161 12.0295 7.83203 11.7398 7.83203 11.3824V11.0589C7.83203 10.7015 8.13161 10.4118 8.50115 10.4118Z" fill="black"/>
</svg>
