<svg width="16" height="16" viewBox="0 0 16 16" fill="none" xmlns="http://www.w3.org/2000/svg">
<path d="M7.5 8.00002L7.5 5.50002C7.5 5.22388 7.72386 5.00002 8 5.00002C8.27614 5.00002 8.5 5.22388 8.5 5.50002L8.5 7.50002H10.5C10.7761 7.50002 11 7.72388 11 8.00002C11 8.27616 10.7761 8.50002 10.5 8.50002H8C7.72386 8.50002 7.5 8.27616 7.5 8.00002Z" fill="black"/>
<path fill-rule="evenodd" clip-rule="evenodd" d="M5.56096 3.63423L5.86073 1.8356C5.9411 1.35341 6.35829 1 6.84713 1H9.15287C9.64171 1 10.0589 1.35341 10.1393 1.8356L10.439 3.63423C11.9671 4.48975 13 6.12426 13 8.00002C13 9.87578 11.9671 11.5103 10.439 12.3658L10.1393 14.1644C10.0589 14.6466 9.64171 15 9.15287 15H6.84713C6.35829 15 5.9411 14.6466 5.86073 14.1644L5.56096 12.3658C4.03291 11.5103 3 9.87578 3 8.00002C3 6.12426 4.0329 4.48975 5.56096 3.63423ZM6.84713 2H9.15287L9.31954 3L9.35297 3.18522C8.92265 3.06455 8.46886 3.00002 8 3.00002C7.53114 3.00002 7.07735 3.06455 6.64704 3.18522L6.68046 3L6.84713 2ZM8 12C10.2091 12 12 10.2092 12 8.00002C12 5.79088 10.2091 4.00002 8 4.00002C5.79086 4.00002 4 5.79088 4 8.00002C4 10.2092 5.79086 12 8 12ZM8 13C8.46886 13 8.92265 12.9355 9.35296 12.8148L9.31954 13L9.15287 14H6.84713L6.68046 13L6.64704 12.8148C7.07735 12.9355 7.53114 13 8 13Z" fill="black"/>
</svg>
